<?xml version="1.0" encoding="UTF-8"?>
<svg id="Layer_1" data-name="Layer 1" xmlns="http://www.w3.org/2000/svg" viewBox="0 0 170.01 167.7">
  <defs>
    <style>
      .cls-1 {
        fill: #603913;
      }

      .cls-1, .cls-2, .cls-3 {
        stroke-width: 0px;
      }

      .cls-2 {
        fill: #3c2415;
      }

      .cls-3 {
        fill: #006838;
      }
    </style>
  </defs>
  <g>
    <path class="cls-3" d="M84.82,112.48c-1.47.16-1.11,4.65-4.18,12.54-1.22,3.14-3.42,8.65-7.94,13.8-5.43,6.18-11.62,8.89-15.68,10.66-5.85,2.56-10.51,3.36-17.77,4.6-15.32,2.62-17.24,3.03-17.98,1.88-1.19-1.86,2.19-4.32,5.85-13.38,2.47-6.11,1.71-6.91,3.97-11.71,2.96-6.28,6.82-10.32,8.57-12.13,6.11-6.29,12.45-9.35,15.68-10.87,7.7-3.63,13.52-4.37,13.38-5.23-.14-.89-6.3.33-15.26-.84-9.76-1.27-16.41-4.53-18.19-5.44-3.69-1.88-7.63-3.89-11.29-7.94-4.13-4.57-3.21-6.55-8.78-17.98-2.54-5.22-4.87-10-8.78-15.89C2.26,48.28-.72,45.25.15,44.11c.78-1.01,3.7.71,12.54,3.35,2.22.66.77.17,11.08,2.93,10.36,2.77,10.33,2.86,13.38,3.55,9.49,2.17,9.02,1.12,12.54,2.51,8.59,3.4,11.49,9.73,13.8,8.57,1.8-.9.33-4.91,1.25-12.75.41-3.47.94-4.74,2.93-11.92,1.52-5.5,2.76-10.5,5.23-20.49C76.6,4.92,77.29.03,78.97,0c1.47-.03,1.74,3.7,6.06,11.71,1.53,2.83,3.11,5.23,6.27,10.04,2.91,4.42,3.81,5.52,7.32,10.66,4.8,7.04,7.19,10.56,7.53,11.5,3.64,10.3-3.28,20.2-.84,21.53,1.27.7,3.21-1.94,7.94-4.81,3.2-1.93,5.93-2.92,13.59-5.02,15.86-4.35,17.07-3.68,27.39-6.69,9.56-2.79,14.81-5.19,15.68-3.76.84,1.37-3.6,4.23-8.36,12.54-1.54,2.69-1.26,2.71-4.6,9.83-3.73,7.95-5.59,11.92-7.53,14.84-2.13,3.22-5.63,8.52-12.13,12.75-7.2,4.69-14.3,5.59-17.98,6.06-5.21.66-10.35.44-15.47.21-5.83-.26-9.97-.81-10.03-.42-.06.38,3.72,1.11,8.36,2.51,3.08.93,9.84,3.14,16.31,6.69,4.73,2.59,10.16,5.57,14.84,11.29,2.89,3.52,3.75,5.96,8.78,18.19,5.2,12.65,8.84,15.65,7.32,17.56-1.62,2.04-5.93-.53-20.91-2.93-8.72-1.4-8.85-.78-12.33-1.88-10.36-3.27-16.65-11.06-18.82-13.8-9.97-12.65-9.98-26.41-12.54-26.13Z"/>
    <path class="cls-1" d="M81.57,167.7c3.44-.07,6.88-.14,10.32-.21-.5-2.93-.97-5.9-1.39-8.93-.72-5.1-1.31-10.2-1.95-17.45-.59-6.6-1.35-16.45-1.95-29.08-1.21-.42-2.42-.83-3.63-1.25.09,6.55.09,13.2,0,19.94-.17,12.65-.65,24.98-1.39,36.98Z"/>
  </g>
  <g>
    <path class="cls-2" d="M123.09,132.98c-13.23-8.85-28.02-17.58-35.57-32.21-.61-1.19-3.36-.09-2.65,1.3,7.63,14.79,22.62,23.68,35.99,32.63,1.11.74,3.62-.78,2.22-1.71h0Z"/>
    <path class="cls-2" d="M50.79,133.84c3.86-1.12,7.25-3.28,10.37-5.77s6.2-5.32,9.1-8.17c5.94-5.83,11.33-12.2,16.14-18.99,1.07-1.51-1.64-2.05-2.44-.92-4.55,6.43-9.62,12.48-15.19,18.06-2.72,2.72-5.57,5.34-8.53,7.8s-6.21,4.83-10,5.92c-1.78.51-1.24,2.59.56,2.07h0Z"/>
    <path class="cls-2" d="M33.21,68.67c10.51,11.75,23.11,21.5,37.16,28.65,4.01,2.04,8.13,3.86,12.34,5.45,1.32.5,3.38-1.4,1.65-2.05-14.4-5.45-27.68-13.61-39.12-23.92-3.3-2.98-6.43-6.13-9.39-9.44-.93-1.04-3.67.17-2.64,1.31h0Z"/>
    <path class="cls-2" d="M130.51,71.75c-12.78,12.62-28.61,22.05-45.61,27.75-.59.2-1.36.71-1.16,1.45.18.69,1.15.87,1.73.68,13.91-4.66,27.03-11.65,38.47-20.84,3.15-2.53,6.15-5.24,9.03-8.08.51-.51.17-1.26-.4-1.5-.73-.31-1.53.04-2.05.55h0Z"/>
    <path class="cls-2" d="M79.29,37.05c3.96,15.84,5.87,32.17,5.54,48.5-.1,4.66-.38,9.31-.82,13.94-.13,1.41,2.81.96,2.93-.26,1.57-16.31.97-32.82-1.79-48.97-.8-4.7-1.8-9.36-2.95-13.99-.31-1.25-3.21-.49-2.9.78h0Z"/>
  </g>
</svg>