<?xml version="1.0" encoding="UTF-8"?>
<svg xmlns="http://www.w3.org/2000/svg" viewBox="0 0 26 29.33">
  <g style="isolation: isolate;">
    <g id="Layer_2" data-name="Layer 2">
      <g id="Layer_1-2" data-name="Layer 1">
        <g>
          <path d="M13,28.83c-.31,0-.61-.08-.88-.23L1.38,22.39c-.54-.31-.88-.89-.88-1.52v-12.41c0-.62.34-1.21.88-1.52L12.12.73c.27-.15.57-.23.88-.23s.61.08.88.23l10.75,6.21c.54.31.88.89.88,1.52v12.41c0,.62-.34,1.2-.88,1.52l-10.75,6.21c-.27.15-.57.23-.88.23Z" style="fill: #214827; stroke-width: 0px;"/>
          <path d="M13,1c.22,0,.44.06.63.17l10.75,6.21c.39.22.63.64.63,1.08v12.41c0,.45-.24.86-.63,1.08l-10.75,6.21c-.19.11-.41.17-.63.17s-.44-.06-.63-.17L1.63,21.95c-.39-.22-.63-.64-.63-1.08v-12.41c0-.45.24-.86.63-1.08L12.37,1.17c.19-.11.41-.17.63-.17M13,0c-.39,0-.78.1-1.13.3L1.13,6.51c-.7.4-1.13,1.15-1.13,1.95v12.41c0,.8.43,1.55,1.13,1.95l10.75,6.21c.35.2.74.3,1.13.3s.78-.1,1.13-.3l10.75-6.21c.7-.4,1.13-1.15,1.13-1.95v-12.41c0-.8-.43-1.55-1.13-1.95L14.13.3c-.35-.2-.74-.3-1.13-.3h0Z" style="fill: #214827; stroke-width: 0px;"/>
        </g>
        <path d="M12.99,21.38c7.03.04,3.27-4.98,2.72-6.47,0-.02-.01-.04-.02-.05-.06-.19-.12-.38-.17-.57l.19.62c2.09-.08,4.52-.56,3.78-2.41-2.78-6.95-6.49-6.63-6.49-6.63,0,0-3.73-.33-6.51,6.63-.74,1.85,1.68,2.33,3.78,2.41l.19-.63c-.05.19-.11.38-.17.57,0,.02-.01.03-.02.05-.55,1.49-4.31,6.51,2.72,6.47" style="fill: #fffdf0; stroke-width: 0px;"/>
        <path d="M17.95,14.69s.14-.12.8-.38c.53-.21.76-.68.76-.68,0,0,.74-.32-1.33-3.85-2.39-4.08-5.15-3.9-5.15-3.9-1.52.05-2.55.82-3.4,1.58-1.63,1.45-3.21,4.69-3.27,5.65,0,0-.07,1.21,1.89,1.59s7.35.25,7.97.2,1.73-.2,1.73-.2Z" style="fill: #d9a566; mix-blend-mode: multiply; stroke-width: 0px;"/>
      </g>
    </g>
  </g>
</svg>