<?xml version="1.0" encoding="UTF-8"?>
<svg id="Layer_2" data-name="Layer 2" xmlns="http://www.w3.org/2000/svg" viewBox="0 0 1901.97 388.5">
  <g id="Layer_1-2" data-name="Layer 1">
    <path d="M14.58,269.28s5.81-3.17,6.34-6.34-3.17-12.16-5.02-12.95-9.51-2.38-11.36-2.64-3.96-3.17-2.11-5.29,4.76-2.38,6.87-2.64,3.17,1.06,6.08,0,9.78-7.4,12.16-7.66,5.02,2.64,6.87,1.85,1.59-6.08,5.02-6.61,6.34-3.44,8.19-3.44,3.7-.53,2.91,3.96-1.59,8.98-3.7,9.78-7.13,3.7-8.46,5.55-3.7,5.81-3.96,8.72,0,5.81-.26,8.72-1.85,8.98-1.85,8.98h14.8s1.32-5.02,1.59-6.61-.53-4.76-.53-4.76c0,0-3.44-1.59-4.76-2.11s-2.11-3.7-.79-5.02-1.32-4.23,1.06-6.08,4.34-3.44,7.06-1.32,6.15,6.61,5.89,7.93,7.4,0,6.34,3.44-5.55,5.02-6.34,4.49,1.06,3.17-.53,5.55-1.59,4.49-1.59,4.49h17.97s4.49-.53,4.49-6.61-6.08-11.63-6.08-11.63c0,0,7.13,4.76,8.98,9.25s0,8.98,0,8.98h11.43s4.88-3.61.55-6.37-3.31,3.7-3.31,3.7c0,0-1.73-9.14,1.97-6.77s4.25,4.17,4.25,4.17c0,0,1.65-1.34-1.34-6.69s-5.99-3.47-5.99-3.47c0,0,4.49-3.39,7.17,3.31s1.34,6.77,1.34,6.77c0,0,.63-6.06,4.1-6.69s4.57,3.54,4.57,3.54c0,0-2.91-2.84-4.41-1.34s.39,9.84.39,9.84h48.05s-2.21-3.68,0-8.95,7.3-7.13,7.3-7.13c0,0-4.59,4.08-4.59,7.81s3.4,8.27,3.4,8.27h27.35s-1.02,2.77-1.53-5.04,1.53-11.04,1.53-11.04c0,0-.34,6.28.85,9.51s2.72,7.05,2.72,7.05h6.79s-2.72-5.52-1.19-10.95,8.15-8.49,8.15-8.49c0,0-5.94,4.93-5.94,9.85s3.23,9.6,3.23,9.6h15.12s-2.72-3.31-1.87-7.22,4.76-8.83,4.76-8.83c0,0,.51-3.57-4.25-3.57s-9-4.42-1.87-12.74,9-13.62,15.29-13.86,8.66,7.57,12.4,13.01,2.89,11.72-1.02,12.74-6.79.68-6.79,2.04.17,5.27,1.7,6.62,2.72,8.32.51,9.17-2.21,2.63-2.21,2.63h21.4s.85-7.22-1.53-8.92-4.42-1.87-4.42-1.87c0,0,5.04.09,6.09,2.63s1.38-8.01-.9-9.7-3.65.39-3.65.39c0,0,1.66-4.23,5.36.72s3.44,11.33,3.44,11.33c0,0-2.02-13.42,2.34-18.56s8.99-4.88,8.99-4.88c0,0-7.42.07-8.6,11.85s4.62,17.01,4.62,17.01h15.52s4.24-4.69,3.05-10.53-4.51-2.39-4.51-2.39c0,0,3.18-5.3,6.5,1.86s.66,11.06.66,11.06h172.46s-3.17-4.12.57-8.13,6.22-1.52,6.22-1.52c0,0-3.6-.55-4.15,2.9s1.38,6.75,1.38,6.75c0,0,7.47-.8,5.67-7.44s-6.08-6.36-6.08-6.36c0,0,5.26-.55,6.36,2.35s1.52-5.39,3.59-6.5,2.9,2.35,2.9,2.35c0,0-3.46-5.25-3.73,4.84s2.35,10.76,2.35,10.76h89.19s5.53-7.86,0-12.97-8.71-2.35-8.71-2.35c0,0,6.22-5.25,12.45,4.7s1.94,10.62,1.94,10.62h13.83s-3.04-9.79-2.9-14.63,1.38-11.75,1.38-11.75c0,0-7.74,1.24-9.13-.83s-.55-2.63.83-9.82,1.24-12.72,4.56-12.72,3.87-3.6,6.5-7.33,7.05-3.73,6.64,2.07-.69,13.28-.97,17.56,1.66,3.04,2.49,8.3-3.04,5.81-4.01,4.56-3.18-1.94-3.18-1.94c0,0-2.21,8.16-1.94,11.34s5.39,15.19,5.39,15.19h21.26s-.39-14.87-1.16-19.51-2.71-4-6.77-10.32-6.97-8.45-5.42-17.54-.97-16.06-.97-16.06c0,0,8.51,2.52,11.03,11.03s2.9,18.16,2.52,20.69.5,6.6.77,11.97,1.13,19.75,1.13,19.75c0,0,2.2-5.72,3.05-11.33s2.56-24.65,1.1-29.78-.85-21.48,2.44-25.87,9.27-8.18,9.27-8.18c0,0-2.44,3.05-1.46,9.64s3.54,6.1,1.46,12.08-7.2,9.15-8.54,12.45-1.71,23.43-2.68,29.41-3.66,11.58-3.66,11.58h5.13s-.37-11.7,1.34-18.65,3.17-7.08,3.91-12.94-.37-16.6,8.66-24.29,26.24-6.59,26.24-6.59c0,0-3.54,2.81-5.49,9.76s-5.61,11.09-11.11,15.12-13.18,4.77-15.13,7.7-4.03,5.25-5.61,10.98-1.71,18.9-1.71,18.9h80.96s2.92-3.38,3.06-9.91-3.34-13.91-3.34-13.91c0,0,5.01,9.32,5.29,13.77s-1.67,10.05-1.67,10.05h6.54s1.39-8.94,1.39-14.92-1.11-16.83-1.11-16.83c0,0-4.59,2.78-7.93,3.06s-7.23-3.32-7.51-8.89-.42-8.77-3.34-13.08-10.71-18.92-10.71-18.92c0,0,4.03,4.03,8.34,6.68s4.87,3.48,10.43,6.4,9.18,10.15,10.15,12.8,4.31,21.98,3.76,28.51-.97,15.2-.97,15.2c0,0,2.78-30.64,4.45-34.67s6.54-11.96,11.96-19.75,14.88-14.74,16.97-18.5,1.25,2.64-.7,8.9-2.92,15.02-5.56,18.78-16.69,2.78-18.78,7.09-4.03,9.87-5.56,21.7-.97,16.45-.97,16.45h6.54s-2.5-2.54-.97-10.33,6.12-10.71,6.12-10.71c0,0-4.87,4.87-4.73,10.57s2.36,10.47,2.36,10.47h7.79s5.56-1.57,3.34-10.19-4.87-9.6-4.87-9.6c0,0,5.15,3.76,7.23,9.6s-.7,10.19-.7,10.19c0,0-.42-15.48,5.42-17.98s9.6-1.95,9.6-1.95c0,0-11.13,2.36-10.99,9.87s3.06,10.05,3.06,10.05h14.88s-1.53-7.83,0-10.75,5.56-2.09,5.29-7.37-1.25-16.39-3.89-19.46-8.07-10.16-4.73-11.42,9.6,0,9.87,3.2,5.98,4.73,7.93,3.48,5.98,1.39,7.37,2.5,3.76,4.73,5.15,4.73,1.53,1.11,0,4.03-5.01,5.29-6.68,3.76-4.45-1.11-5.01.56-1.67,4.59-.56,6.82,1.25,2.92.14,5.42-2.36,5.01-2.64,7.09-.83,7.41-.83,7.41h8.07s2.23-2.26,1.25-4.49-3.48-2.92-4.31-1.67-2.64-7.09,1.11-8.07,6.82-.97,5.7,1.25-1.81,5.29-.28,6.12-.56,6.85-.56,6.85h5.69s2.8-4.49,2.1-7.97-5.42-4.87-3.2-7.37,3.89-3.34,7.51-1.53,1.39,7.23,4.03,6.54-3.76,4.87-4.45,2.78,0,1.67-.83,3.34-1.81,4.21-1.81,4.21h12.52s9.46-4.35,6.4-9.77-8.62,2.23-8.62,2.23c0,0,2.92-8.07,10.57-3.76s.56,11.3.56,11.3" style="fill: #24321e; stroke: #24321e; stroke-miterlimit: 10;"/>
    <g>
      <path d="M170.82,268.51s6.68-10.78,5.92-20.66c-.76-9.87-11.24-29.62-11.24-29.62" style="fill: none; stroke: #24321e; stroke-linecap: round; stroke-linejoin: round;"/>
      <path d="M186.61,218.23s.76,5.47-1.67,10.78-9.33,12.3-9.33,12.3" style="fill: none; stroke: #24321e; stroke-linecap: round; stroke-linejoin: round;"/>
      <path d="M176.3,247.39s-7.61-.15-10.8-1.97-4.56-5.47-4.56-5.47" style="fill: none; stroke: #24321e; stroke-linecap: round; stroke-linejoin: round;"/>
      <path d="M165.5,258.63s3.19,2.28,4.56,2.28,4.56-.47,4.56-.47" style="fill: none; stroke: #24321e; stroke-linecap: round; stroke-linejoin: round;"/>
      <circle cx="163.89" cy="257.33" r="1.3" style="fill: #24321e; stroke-width: 0px;"/>
      <circle cx="163.61" cy="239.06" r="1.56" style="fill: #24321e; stroke-width: 0px;"/>
      <circle cx="159.81" cy="237.1" r="2.23" style="fill: #24321e; stroke-width: 0px;"/>
      <circle cx="158.79" cy="241.32" r="1.46" style="fill: #24321e; stroke-width: 0px;"/>
      <circle cx="186.02" cy="214.26" r="2.55" style="fill: #24321e; stroke-width: 0px;"/>
      <circle cx="190.89" cy="219.04" r="2.67" style="fill: #24321e; stroke-width: 0px;"/>
      <circle cx="182.78" cy="219.64" r="2.82" style="fill: #24321e; stroke-width: 0px;"/>
      <circle cx="168.78" cy="217.64" r="2.38" style="fill: #24321e; stroke-width: 0px;"/>
      <circle cx="163.35" cy="214.93" r="3.22" style="fill: #24321e; stroke-width: 0px;"/>
      <circle cx="163.11" cy="222.46" r="3.29" style="fill: #24321e; stroke-width: 0px;"/>
    </g>
    <g>
      <path d="M144.06,232.17s.52,8.86-10.96,24.38-26.87,11.95-26.87,11.95" style="fill: none; stroke: #24321e; stroke-miterlimit: 10;"/>
      <path d="M147.12,229.86c-.34,2.42-1.72,9.68-3.11,9.48s-.63-8.09-.38-9.97c.7-5.36,4.24-4.86,3.49.49Z" style="fill: #24321e; stroke: #24321e; stroke-miterlimit: 10;"/>
      <path d="M150.24,231.01c-1.3,2.07-5.52,8.13-6.71,7.39s2.73-7.64,3.73-9.26c2.83-4.61,5.86-2.71,2.98,1.87Z" style="fill: #24321e; stroke: #24321e; stroke-miterlimit: 10;"/>
      <path d="M150.15,236.04c-1.54,1.89-6.48,7.38-7.57,6.5s3.66-7.23,4.85-8.71c3.38-4.22,6.14-1.97,2.72,2.21Z" style="fill: #24321e; stroke: #24321e; stroke-miterlimit: 10;"/>
      <path d="M148.06,241.94c-1.79,1.71-7.45,6.63-8.43,5.61s4.59-6.82,5.97-8.17c3.93-3.83,6.42-1.23,2.46,2.56Z" style="fill: #24321e; stroke: #24321e; stroke-miterlimit: 10;"/>
      <path d="M145.71,247.8c-2.04,1.54-8.41,5.88-9.29,4.72s5.51-6.41,7.09-7.62c4.48-3.44,6.71-.5,2.2,2.9Z" style="fill: #24321e; stroke: #24321e; stroke-miterlimit: 10;"/>
      <path d="M144.12,252.63c-2.28,1.36-9.37,5.13-10.14,3.83s6.44-6,8.21-7.08c5.02-3.05,6.99.24,1.94,3.24Z" style="fill: #24321e; stroke: #24321e; stroke-miterlimit: 10;"/>
      <path d="M141.77,257.33c-2.53,1.18-10.33,4.37-11,2.95s7.37-5.6,9.33-6.53c5.57-2.66,7.27.98,1.68,3.58Z" style="fill: #24321e; stroke: #24321e; stroke-miterlimit: 10;"/>
      <path d="M136.54,263.07c-2.78,1-11.3,3.62-11.86,2.06s8.29-5.19,10.45-5.98c6.12-2.27,7.55,1.71,1.42,3.93Z" style="fill: #24321e; stroke: #24321e; stroke-miterlimit: 10;"/>
      <path d="M129.53,254.25c-.49,2.91-2.39,11.62-4.03,11.34s-.45-9.77-.09-12.04c1.03-6.44,5.2-5.74,4.12.69Z" style="fill: #24321e; stroke: #24321e; stroke-miterlimit: 10;"/>
      <path d="M133.48,250.68c-.6,2.89-2.82,11.52-4.45,11.18s-.08-9.78.37-12.03c1.27-6.4,5.41-5.54,4.09.85Z" style="fill: #24321e; stroke: #24321e; stroke-miterlimit: 10;"/>
      <path d="M136.8,246.33c-.17,2.95-1.09,11.81-2.76,11.72s-1.52-9.66-1.41-11.96c.31-6.52,4.54-6.28,4.17.24Z" style="fill: #24321e; stroke: #24321e; stroke-miterlimit: 10;"/>
      <path d="M139.9,240.71c-.08,2.55-.67,10.24-2.12,10.2s-1.56-8.31-1.51-10.3c.12-5.64,3.81-5.54,3.64.1Z" style="fill: #24321e; stroke: #24321e; stroke-miterlimit: 10;"/>
      <path d="M143.08,235.58c.13,2.48.15,9.97-1.27,10.04s-2.16-7.93-2.28-9.85c-.33-5.47,3.27-5.67,3.54-.19Z" style="fill: #24321e; stroke: #24321e; stroke-miterlimit: 10;"/>
    </g>
    <path d="M514.63,208.29s-8.92,10.7-10.95,34.35c-2.03,23.65,15.31,27.11,15.31,27.11" style="fill: none; stroke: #24321e; stroke-linecap: round; stroke-miterlimit: 10; stroke-width: 3px;"/>
    <path d="M513.81,204.02c-1.52,2.88-5.78,11.72-4.48,12.28s6.55-8.65,7.74-10.88c3.41-6.35.1-7.77-3.26-1.4Z" style="fill: #24321e; stroke: #24321e; stroke-miterlimit: 10;"/>
    <path d="M510.36,203.56c-.46,3.03-1.47,12.12.07,11.95s3.42-10.02,3.8-12.37c1.08-6.7-2.85-6.27-3.87.42Z" style="fill: #24321e; stroke: #24321e; stroke-miterlimit: 10;"/>
    <path d="M506.7,209.2c-.13,2.96-.11,11.82,1.45,11.44s2.35-10.08,2.46-12.39c.33-6.57-3.63-5.61-3.91.95Z" style="fill: #24321e; stroke: #24321e; stroke-miterlimit: 10;"/>
    <path d="M504.04,216.93c.21,2.9,1.25,11.52,2.82,10.93s1.27-10.14,1.13-12.4c-.41-6.44-4.42-4.95-3.95,1.47Z" style="fill: #24321e; stroke: #24321e; stroke-miterlimit: 10;"/>
    <path d="M501.62,224.76c.55,2.84,2.61,11.22,4.2,10.42s.2-10.2-.21-12.42c-1.16-6.31-5.2-4.28-3.99,2Z" style="fill: #24321e; stroke: #24321e; stroke-miterlimit: 10;"/>
    <path d="M499.34,231.02c.89,2.78,3.97,10.92,5.57,9.91s-.88-10.26-1.55-12.44c-1.91-6.18-5.98-3.62-4.03,2.53Z" style="fill: #24321e; stroke: #24321e; stroke-miterlimit: 10;"/>
    <path d="M497.79,237.55c1.22,2.72,5.33,10.62,6.95,9.4s-1.95-10.32-2.88-12.45c-2.65-6.05-6.77-2.96-4.06,3.05Z" style="fill: #24321e; stroke: #24321e; stroke-miterlimit: 10;"/>
    <path d="M497.86,246.85c1.56,2.66,6.69,10.32,8.32,8.89s-3.03-10.39-4.22-12.47c-3.4-5.93-7.55-2.3-4.1,3.58Z" style="fill: #24321e; stroke: #24321e; stroke-miterlimit: 10;"/>
    <path d="M510.26,240.94c-1.76,3.51-6.68,14.25-5.11,14.86s7.65-10.62,9.04-13.34c3.95-7.74-.04-9.28-3.94-1.52Z" style="fill: #24321e; stroke: #24321e; stroke-miterlimit: 10;"/>
    <path d="M509.63,234.77c-1.65,3.55-6.24,14.39-4.63,14.92s7.35-10.84,8.66-13.59c3.71-7.83-.37-9.17-4.03-1.33Z" style="fill: #24321e; stroke: #24321e; stroke-miterlimit: 10;"/>
    <path d="M510.13,228.08c-2.08,3.35-7.8,13.8-5.57,15.08s9.52-9.28,11.16-11.87c4.68-7.37-.99-10.63-5.6-3.21Z" style="fill: #24321e; stroke: #24321e; stroke-miterlimit: 10;"/>
    <path d="M510.86,220.49c-2.17,3.14-8.36,12.83-6.92,13.65s8.83-9.16,10.53-11.59c4.85-6.92,1.19-9-3.61-2.06Z" style="fill: #24321e; stroke: #24321e; stroke-miterlimit: 10;"/>
    <path d="M512.91,212.62c-1.95,2.68-7.55,11.01-6.43,11.88s7.7-7.62,9.23-9.69c4.35-5.91,1.51-8.12-2.8-2.18Z" style="fill: #24321e; stroke: #24321e; stroke-miterlimit: 10;"/>
    <path d="M546.46,202.06c-.85,3.83-2.89,15.47-.76,15.73s5.41-12.1,6.1-15.07c1.96-8.47-3.45-9.14-5.34-.66Z" style="fill: #24321e; stroke: #24321e; stroke-miterlimit: 10;"/>
    <path d="M551.05,211.71c-1.82,1.8-6.85,7.62-5.05,9.07,1.81,1.45,8.15-4.05,9.58-5.43,4.09-3.94-.51-7.63-4.54-3.64Z" style="fill: #24321e; stroke: #24321e; stroke-miterlimit: 10;"/>
    <path d="M537.59,212.73c.95,2.38,4.35,9.28,6.39,8.17,2.04-1.1-.56-9.08-1.28-10.94-2.04-5.3-7.23-2.49-5.11,2.77Z" style="fill: #24321e; stroke: #24321e; stroke-miterlimit: 10;"/>
    <path d="M549.69,225.98c-2.2,1.3-8.68,5.44-8.11,6.21s7.83-3.26,9.54-4.27c4.88-2.86,3.43-4.83-1.43-1.94Z" style="fill: #24321e; stroke: #24321e; stroke-miterlimit: 10;"/>
    <path d="M535.79,225.62c1.09,1.71,4.57,6.72,5.33,6.13s-2.59-6.28-3.43-7.61c-2.38-3.8-4.31-2.3-1.9,1.48Z" style="fill: #24321e; stroke: #24321e; stroke-miterlimit: 10;"/>
    <path d="M548.67,234.95c-2.79.98-11.11,4.15-10.7,5.02s9.56-2.08,11.73-2.83c6.19-2.13,5.14-4.35-1.03-2.18Z" style="fill: #24321e; stroke: #24321e; stroke-miterlimit: 10;"/>
    <path d="M543.12,244.44c-2.84.83-11.29,3.64-10.79,4.9.5,1.26,9.83-1.11,12.05-1.74,6.3-1.78,5.02-4.99-1.26-3.16Z" style="fill: #24321e; stroke: #24321e; stroke-miterlimit: 10;"/>
    <path d="M525.89,236.89c.55,2.91,2.67,11.56,4.45,11.04,1.78-.52.42-10.08,0-12.34-1.16-6.45-5.67-5.12-4.45,1.31Z" style="fill: #24321e; stroke: #24321e; stroke-miterlimit: 10;"/>
    <path d="M545.62,217.69s-2.62,17.38-11.47,27.98c-12.22,14.63-25.51,23.17-25.51,23.17" style="fill: none; stroke: #24321e; stroke-linecap: round; stroke-linejoin: round; stroke-width: 2px;"/>
    <path d="M643.48,244.71s-6.32,2.41-7.93,9.65-1.49,14.36-1.49,14.36" style="fill: none; stroke: #24321e; stroke-linecap: round; stroke-miterlimit: 10; stroke-width: 3px;"/>
    <path d="M667.83,243.22s2.18,5.97,3.56,12.18-1.78,13.32-1.78,13.32" style="fill: none; stroke: #24321e; stroke-linecap: round; stroke-miterlimit: 10; stroke-width: 3px;"/>
    <path d="M651.64,261.94s-1.92.99-2.05,3,1.44,4.81,1.44,4.81" style="fill: none; stroke: #24321e; stroke-linecap: round; stroke-miterlimit: 10; stroke-width: 3px;"/>
    <path d="M642.71,261.61s-1.84,1.09-1.23,3.15,1.99,4.46,1.99,4.46" style="fill: none; stroke: #24321e; stroke-linecap: round; stroke-miterlimit: 10; stroke-width: 3px;"/>
    <path d="M662.1,261.61s2.67-.18,3.15,2.76-1.4,4.29-1.4,4.29" style="fill: none; stroke: #24321e; stroke-linecap: round; stroke-miterlimit: 10; stroke-width: 3px;"/>
    <ellipse cx="662.1" cy="260.26" rx="3.69" ry="1.35" transform="translate(-37.47 130.97) rotate(-10.99)" style="fill: none; stroke: #24321e; stroke-linecap: round; stroke-miterlimit: 10; stroke-width: 3px;"/>
    <path d="M661.34,247.74s9.45-1.41,14.14-5.94-7.03-21.64-10.78-20-8.2,11.95-7.11,17.89,1.11,8.58,3.75,8.05Z" style="fill: #24321e; stroke: #24321e; stroke-linecap: round; stroke-miterlimit: 10; stroke-width: 3px;"/>
    <path d="M642.9,249.93s-6.95-3.5-7.19-6.71,8.13-11.96,11.49-11.8.7,11.02.86,14.3-1.64,6.88-5.16,4.22Z" style="fill: #24321e; stroke: #24321e; stroke-linecap: round; stroke-miterlimit: 10; stroke-width: 3px;"/>
    <path d="M652.59,265.13s-7.42-2.27-5.63-4.87,6.64-7.21,7.89-6.43,1.51,12.92-2.27,11.3Z" style="fill: #24321e; stroke: #24321e; stroke-linecap: round; stroke-miterlimit: 10; stroke-width: 3px;"/>
    <path d="M639.38,261.61s2.72,3.4,4.1,2.54,3.8-6.56,1.37-6.8-5.23,2.19-5.47,4.26Z" style="fill: #24321e; stroke: #24321e; stroke-linecap: round; stroke-miterlimit: 10; stroke-width: 3px;"/>
    <g>
      <path d="M338.31,137.27s31.08,10.59,50.93,4.24,37.1-25.41,37.1-25.41c0,0-3.93-8.17-4.54-11.5s0-9.38,0-9.38c0,0-10.29-4.24-14.52-8.17s-12.1-14.52-12.1-14.52c0,0,13.61,1.21,20.27,1.51s22.08-1.51,22.08-1.51c0,0,13.61-2.12,18.15-1.82s12.99,3.86,14.87,3.86,10.75-.27,13.3-.94,8.86-4.3,8.86-4.3c0,0,9.4-1.48,1.88,11.69s-18.94,21.62-23.64,31.83-8.33,7.39-11.55,13.57-6.9,14.39-4.2,20.86,5.66,11.59,5.66,11.59c0,0-40.15,25.6-60.63,29.91s-31.53,3.23-31.53,3.23c0,0,3.23,8.89.54,18.32s-7.28,45.81-6.47,50.39,2.96,8.89,2.96,8.89h-8.23s-2.68-5.52-3.43-12.61-.19-21.5-3.34-28.34-12.43-23.15-12.43-23.15c0,0-7.57,7.89-16.51,21.31s-18.68,33.94-19.47,37.88,0,9.73,0,9.73h-7.1s-.26-8.68,0-13.68,10.26-22.62,12.89-30.25,8.9-21.7,7.02-28.73-7.97-23.24-7.5-29.91,5.07-29.41,5.07-29.41c0,0-33.01,7.38-49.7-17.47s20.19-43.1,23.3-63.68,3.11-26.4-4.66-40.77-29.12-16.31-29.12-16.31c0,0,35.34-14.37,70.67,22.91s8.54,46.6,2.33,54.75-13.2,17.47-10.1,29.9,9.71,20.19,9.71,20.19l13.18,5.3Z" style="fill: #24321e; stroke: #24321e; stroke-linecap: round; stroke-miterlimit: 10; stroke-width: 3px;"/>
      <path d="M444.1,73.53s-7.38-2.86-17.4-6.72-20.92-11.12-20.92-11.12c0,0,.66,6.17,2.31,8.92s17.73,14.32,17.73,14.32l18.28-5.4Z" style="fill: #24321e; stroke: #24321e; stroke-linecap: round; stroke-miterlimit: 10; stroke-width: 3px;"/>
      <path d="M454.5,162.8s-17.86,17.22-29.56,46.08-4.64,58.04-4.64,58.04h-7.68s-10.08-47.07-1.17-62.73,4.94-20.29,4.94-20.29l38.11-21.1Z" style="fill: #24321e; stroke: #24321e; stroke-linecap: round; stroke-miterlimit: 10; stroke-width: 3px;"/>
      <path d="M442.45,150.35s9.73,13.35,15.38,19.23,18.78,14.25,18.78,14.25c0,0-4.3,23.83-9.73,31.03s-18.55,16.47-18.55,16.47l-4.3-4.98s11.54-8.6,15.5-13.57,5.09-21.94,5.09-21.94c0,0-5.88-3.85-11.54-6.11s-26.47-7.69-31.45-14.03-10.86-13.57-10.86-13.57" style="fill: #24321e; stroke: #24321e; stroke-linecap: round; stroke-miterlimit: 10; stroke-width: 3px;"/>
    </g>
    <path d="M1520.16,249.97s.4.3,1.02.84c-.62-.69-1.02-.84-1.02-.84Z" style="fill: #24321e; stroke: #24321e; stroke-miterlimit: 10;"/>
    <path d="M1600.97,258.45c-7.65-4.31-10.57,3.76-10.57,3.76,0,0,5.56-7.65,8.62-2.23,1.5,2.66,0,5.06-1.94,6.81h-15.76c.19-.43.4-.86.59-1.25.83-1.67.14-5.42.83-3.34s7.09-3.48,4.45-2.78c-2.64.7-.42-4.73-4.03-6.54-3.62-1.81-5.29-.97-7.51,1.53-2.23,2.5,2.5,3.89,3.2,7.37.33,1.64-.12,3.5-.69,5.02h-6.28c.35-1.65.53-3.47-.26-3.9-1.53-.83-.83-3.89.28-6.12,1.11-2.23-1.95-2.23-5.7-1.25-3.76.97-1.95,9.32-1.11,8.07.83-1.25,3.34-.56,4.31,1.67.23.52.28,1.05.22,1.54h-9.23c.17-1.58.38-3.43.52-4.47.28-2.09,1.53-4.59,2.64-7.09,1.11-2.5.97-3.2-.14-5.42s0-5.15.56-6.82c.56-1.67,3.34-2.09,5.01-.56s5.15-.83,6.68-3.76c1.53-2.92,1.39-4.03,0-4.03s-3.76-3.62-5.15-4.73c-1.39-1.11-5.42-3.76-7.37-2.5-1.95,1.25-7.65-.28-7.93-3.48-.28-3.2-6.54-4.45-9.87-3.2-3.34,1.25,2.09,8.34,4.73,11.42s3.62,14.18,3.89,19.46c.28,5.29-3.76,4.45-5.29,7.37-.92,1.76-.73,5.28-.44,7.82h-16.23c-.64-1.58-1.21-3.88-1.27-7.12-.14-7.51,10.99-9.87,10.99-9.87,0,0-3.76-.56-9.6,1.95-2.52,1.08-3.87,4.58-4.6,8.2-.04-.14-.08-.27-.13-.41-1.51-4.22-4.6-7.34-6.21-8.76.97,1.08,2.49,3.48,3.85,8.76.89,3.43.53,5.73-.21,7.27h-11.99c-.59-1.91-1.22-4.6-1.29-7.55-.14-5.7,4.73-10.57,4.73-10.57,0,0-4.59,2.92-6.12,10.71-.67,3.4-.57,5.8-.24,7.42h-5.42c.01-2.55.21-6.92,1.07-13.54,1.53-11.82,3.48-17.39,5.56-21.7s16.13-3.34,18.78-7.09c2.64-3.76,3.62-12.52,5.56-18.78,1.95-6.26,2.78-12.66.7-8.9-2.09,3.76-11.54,10.71-16.97,18.5-5.42,7.79-10.29,15.72-11.96,19.75-1.35,3.27-3.44,24.03-4.18,31.77h-.12c.17-3.1.47-8.12.82-12.29.56-6.54-2.78-25.87-3.76-28.51s-4.59-9.87-10.15-12.8c-5.56-2.92-6.12-3.76-10.43-6.4-4.31-2.64-8.34-6.68-8.34-6.68,0,0,7.79,14.6,10.71,18.92s3.06,7.51,3.34,13.08c.28,5.57,4.17,9.17,7.51,8.89,3.34-.28,7.93-3.06,7.93-3.06,0,0,1.11,10.85,1.11,16.83,0,3.84-.57,8.89-.98,12.02h-6.12c.49-2.01.99-4.74.84-7.15-.28-4.45-5.29-13.77-5.29-13.77,0,0,3.48,7.37,3.34,13.91-.06,3.03-.73,5.37-1.42,7.02l-44,.03c-.09.14-.15.21-.15.21h44.05c-.45,1.02-.89,1.75-1.19,2.18h-81.31c0-.45.02-1.21.05-2.18h23.31s.13-.04.33-.2h-23.64c.13-4.18.52-11.97,1.64-16.04,1.59-5.74,3.66-8.05,5.61-10.98s9.64-3.66,15.13-7.7c5.49-4.04,9.15-8.17,11.11-15.12,1.95-6.96,5.49-9.76,5.49-9.76,0,0-17.21-1.1-26.24,6.59-9.03,7.69-7.93,18.43-8.66,24.29-.73,5.86-2.2,5.98-3.91,12.94-1.18,4.82-1.37,11.9-1.38,15.81h-3.89c.84-2.19,1.92-5.4,2.46-8.73.98-5.98,1.34-26.12,2.68-29.41,1.34-3.3,6.47-6.47,8.54-12.45,2.07-5.98-.49-5.49-1.46-12.08-.98-6.59,1.46-9.64,1.46-9.64,0,0-5.98,3.78-9.27,8.18-3.3,4.39-3.91,20.75-2.44,25.87,1.46,5.13-.24,24.16-1.1,29.78-.48,3.14-1.37,6.3-2.07,8.49h-1.15c-.26-4.47-.76-13.03-.96-16.91-.27-5.37-1.16-9.44-.77-11.97.39-2.53,0-12.18-2.52-20.69-2.52-8.51-11.03-11.03-11.03-11.03,0,0,2.52,6.97.97,16.06-1.55,9.09,1.35,11.22,5.42,17.54s6,5.68,6.77,10.32c.56,3.37.92,12.12,1.07,16.67h-22.34c-1.53-3.74-4.03-10.15-4.22-12.34-.28-3.18,1.94-11.34,1.94-11.34,0,0,2.21.69,3.18,1.94.97,1.24,4.84.69,4.01-4.56-.83-5.25-2.77-4.01-2.49-8.3.28-4.29.55-11.75.97-17.56.41-5.81-4.01-5.81-6.64-2.07-2.63,3.73-3.18,7.33-6.5,7.33s-3.18,5.53-4.56,12.72c-1.38,7.19-2.21,7.74-.83,9.82s9.13.83,9.13.83c0,0-1.24,6.91-1.38,11.75-.09,3.19,1.2,8.54,2.09,11.81h-11.6c-.14-1.57-.98-4.01-3.35-7.8-5.95-9.52-11.9-5.13-12.41-4.73.38-.29,3.49-2.41,8.67,2.38,3.43,3.18,2.6,7.4,1.48,10.16h-12.65c.06.1.1.16.1.16h12.48c-.4.96-.83,1.72-1.11,2.18h-90.11c-.32-.37-.71-1.04-1.04-2.18h25.02s0-.04,0-.12l-25.05.02c-.45-1.59-.78-4.08-.67-8,.28-10.09,3.73-4.84,3.73-4.84,0,0-.83-3.46-2.9-2.35-2.07,1.11-2.49,9.4-3.59,6.5-1.1-2.9-6.36-2.35-6.36-2.35,0,0,4.29-.28,6.08,6.36.56,2.09.21,3.59-.53,4.68h-6.24c-.31-1.15-.51-2.56-.28-3.99.55-3.46,4.15-2.9,4.15-2.9,0,0-2.49-2.49-6.22,1.52-1.79,1.93-1.99,3.87-1.71,5.38l-41.41.03s.05.07.05.07h41.37c.19.96.56,1.72.83,2.18h-171.9c.57-1.23,1.73-4.86-.92-10.58-3.31-7.16-6.5-1.86-6.5-1.86,0,0,3.31-3.45,4.51,2.39.97,4.73-1.64,8.72-2.66,10.05h-16.36c-1.33-1.51-5.14-6.76-4.17-16.53,1.17-11.79,8.6-11.85,8.6-11.85,0,0-4.62-.26-8.99,4.88-2.82,3.33-2.97,10.1-2.73,14.48-.42-2.17-1.27-4.88-3.05-7.25-3.7-4.95-5.36-.72-5.36-.72,0,0,1.37-2.08,3.65-.39,2.28,1.69,1.95,12.24.9,9.7-1.05-2.54-6.09-2.63-6.09-2.63,0,0,2.04.17,4.42,1.87,2.01,1.44,1.71,6.82,1.57,8.44h-21.36c.16-.59.63-1.58,2.13-2.15,2.21-.85,1.02-7.81-.51-9.17-1.53-1.36-1.7-5.27-1.7-6.62s2.89-1.02,6.79-2.04c3.91-1.02,4.76-7.3,1.02-12.74-3.74-5.44-6.11-13.25-12.4-13.01-6.28.24-8.15,5.53-15.29,13.86-7.13,8.32-2.89,12.74,1.87,12.74s4.25,3.57,4.25,3.57c0,0-3.91,4.93-4.76,8.83-.66,3.03.82,5.69,1.52,6.74h-15.08c-.8-1.31-2.92-5.13-2.92-9.12,0-4.93,5.94-9.85,5.94-9.85,0,0-6.62,3.06-8.15,8.49-1.26,4.49.37,9.03.98,10.48h-6.77c-.44-1.12-1.59-4.02-2.53-6.57-1.19-3.23-.85-9.51-.85-9.51,0,0-2.04,3.23-1.53,11.04.19,2.95.46,4.39.71,5.04h-26.53s-3.4-4.53-3.4-8.27,4.59-7.81,4.59-7.81c0,0-5.1,1.87-7.3,7.13-2.21,5.27,0,8.95,0,8.95h-48.05s-1.89-8.34-.39-9.84c1.5-1.5,4.41,1.34,4.41,1.34,0,0-1.1-4.17-4.57-3.54-2.34.42-3.38,3.31-3.82,5.15-.13-.98-.56-2.59-1.62-5.23-2.68-6.69-7.17-3.31-7.17-3.31,0,0,2.99-1.89,5.99,3.47,2.99,5.36,1.34,6.69,1.34,6.69,0,0-.55-1.81-4.25-4.17-3.7-2.36-1.97,6.77-1.97,6.77,0,0-1.02-6.46,3.31-3.7,4.33,2.76-.55,6.37-.55,6.37h-11.43s1.85-4.49,0-8.98c-1.85-4.49-8.98-9.25-8.98-9.25,0,0,6.08,5.55,6.08,11.63s-4.49,6.61-4.49,6.61h-17.97s0-2.11,1.59-4.49-.26-6.08.53-5.55c.79.53,5.29-1.06,6.34-4.49,1.06-3.44-6.61-2.11-6.34-3.44.26-1.32-3.17-5.81-5.89-7.93-2.72-2.11-4.68-.53-7.06,1.32-2.38,1.85.26,4.76-1.06,6.08-1.32,1.32-.53,4.49.79,5.02,1.32.53,4.76,2.11,4.76,2.11,0,0,.79,3.17.53,4.76-.26,1.59-1.59,6.61-1.59,6.61h-14.8s1.59-6.08,1.85-8.98c.26-2.91,0-5.81.26-8.72.26-2.91,2.64-6.87,3.96-8.72,1.32-1.85,6.34-4.76,8.46-5.55,2.11-.79,2.91-5.29,3.7-9.78.79-4.49-1.06-3.96-2.91-3.96s-4.76,2.91-8.19,3.44-3.17,5.81-5.02,6.61c-1.85.79-4.49-2.11-6.87-1.85-2.38.26-9.25,6.61-12.16,7.66-2.91,1.06-3.96-.26-6.08,0-2.11.26-5.02.53-6.87,2.64-1.85,2.11.26,5.02,2.11,5.29,1.85.26,9.51,1.85,11.36,2.64,1.85.79,5.55,9.78,5.02,12.95-.53,3.17-6.34,6.34-6.34,6.34H14.58v118.72h1589.94v-118.72h-2.56c.4-.46,1-1.23,1.52-2.18h16.87s-.07-.11-.18-.32h-16.53c1.23-2.41,1.77-5.82-2.68-8.33ZM1256.35,269.28h-2.17c-.23-.46-.56-1.23-.82-2.18h6.13c-.83,1.14-2.08,1.8-3.14,2.18ZM1361.18,269.28c.36-.37.67-1.03.6-2.18h11.63c.26.96.49,1.72.62,2.18h-12.86ZM1379.65,269.28c-.19-.46-.51-1.23-.9-2.18h22.28c.03.97.06,1.73.07,2.18h-21.44ZM1402.41,269.28h-.2c-.03-.45-.07-1.21-.13-2.18h1.08c-.31.97-.58,1.73-.74,2.18ZM1403.43,269.28c.2-.45.53-1.2.91-2.18h3.97c0,.97.01,1.73.02,2.18h-4.9ZM1500.35,269.28h-6.45c.15-.46.37-1.22.61-2.18h6.14c-.13.97-.24,1.73-.3,2.18ZM1502.82,269.28h-.02c.02-.45.06-1.21.11-2.18h.11c-.09.99-.16,1.74-.21,2.18ZM1504.55,269.28c-.03-.42-.06-1.14-.06-2.18h5.48c.24,1.06.57,1.77.82,2.18h-6.23ZM1522.68,269.28h-8.98c-.19-.45-.48-1.21-.79-2.18h11.78c-.6,1.12-1.39,1.79-2.01,2.18ZM1533.36,269.28c-.33-.41-.79-1.12-1.25-2.18h16.15c.12.95.24,1.72.32,2.18h-15.22ZM1568.55,269.28h-8.42c.05-.48.14-1.28.23-2.18h9.21c-.17.91-.67,1.7-1.03,2.18ZM1577.03,269.28h-5.81c.15-.49.39-1.29.6-2.18h6.24c-.37.94-.77,1.71-1.03,2.18ZM1593.55,269.28h-13.26c.2-.5.53-1.33.9-2.18h15.55c-1.15.98-2.38,1.73-3.2,2.18Z" style="fill: #24321e; stroke: #24321e; stroke-miterlimit: 10;"/>
    <path d="M1099.28,257.32c3.06-5.42,8.62,2.23,8.62,2.23,0,0-2.92-8.07-10.57-3.76-7.65,4.31-.56,11.3-.56,11.3h8.89c-.24-.12-9.41-4.42-6.39-9.77Z" style="fill: #24321e; stroke: #24321e; stroke-miterlimit: 10;"/>
    <path d="M1119.44,259.13c.7-3.48,5.42-4.87,3.2-7.37s-3.89-3.34-7.51-1.53c-3.62,1.81-1.39,7.23-4.03,6.54-2.64-.7,3.76,4.87,4.45,2.78.7-2.09,0,1.67.83,3.34.81,1.62,1.75,4.06,1.8,4.2h3.35c-.1-.16-2.78-4.54-2.09-7.95Z" style="fill: #24321e; stroke: #24321e; stroke-miterlimit: 10;"/>
    <path d="M1149.63,256.35c-1.53-2.92-5.56-2.09-5.29-7.37.28-5.29,1.25-16.39,3.89-19.46,2.64-3.07,8.07-10.16,4.73-11.42-3.34-1.25-9.6,0-9.87,3.2s-5.98,4.73-7.93,3.48-5.98,1.39-7.37,2.5c-1.39,1.11-3.76,4.73-5.15,4.73s-1.53,1.11,0,4.03c1.53,2.92,5.01,5.29,6.68,3.76,1.67-1.53,4.45-1.11,5.01.56s1.67,4.59.56,6.82c-1.11,2.23-1.25,2.92-.14,5.42,1.11,2.5,2.36,5.01,2.64,7.09.27,2.03.8,7.12.83,7.38h11.41c.06-.34,1.49-7.87,0-10.72Z" style="fill: #24321e; stroke: #24321e; stroke-miterlimit: 10;"/>
    <polygon points="1105.68 267.09 1118.19 267.09 1118.19 267.08 1105.66 267.09 1105.68 267.09" style="fill: #24321e; stroke: #24321e; stroke-miterlimit: 10;"/>
    <path d="M1197.75,235.35s4.59,2.78,7.93,3.06c3.34.28,7.23-3.32,7.51-8.89.28-5.57.42-8.77,3.34-13.08,2.92-4.31,10.71-18.92,10.71-18.92,0,0-4.03,4.03-8.34,6.68-4.31,2.64-4.87,3.48-10.43,6.4-5.56,2.92-9.18,10.15-10.15,12.8-.97,2.64-4.31,21.98-3.76,28.51.54,6.29.94,14.53.97,15.14h2.5c-.1-.63-1.38-9.1-1.38-14.86s1.11-16.83,1.11-16.83Z" style="fill: #24321e; stroke: #24321e; stroke-miterlimit: 10;"/>
    <path d="M1188.15,256.76c-1.53-7.79-6.12-10.71-6.12-10.71,0,0,4.87,4.87,4.73,10.57-.13,5.36-2.1,9.89-2.34,10.42h2.81c.33-.38,2.34-3.1.93-10.28Z" style="fill: #24321e; stroke: #24321e; stroke-miterlimit: 10;"/>
    <path d="M1173.27,256.9c1.36-5.27,2.87-7.68,3.85-8.76-1.61,1.41-4.7,4.53-6.21,8.76-.05.14-.08.27-.13.41-.73-3.62-2.08-7.12-4.6-8.2-5.84-2.5-9.6-1.95-9.6-1.95,0,0,11.13,2.36,10.99,9.87-.13,6.99-2.66,9.67-3.02,10.01h7.02s.03.04.03.04c0,0,0-.02,0-.05h4.87c-.81-.3-5.23-2.3-3.2-10.15Z" style="fill: #24321e; stroke: #24321e; stroke-miterlimit: 10;"/>
    <path d="M1177.12,248.15c.62-.54,1.02-.84,1.02-.84,0,0-.4.15-1.02.84Z" style="fill: #24321e; stroke: #24321e; stroke-miterlimit: 10;"/>
    <path d="M1179.11,212.68c-5.42-7.79-14.88-14.74-16.97-18.5s-1.25,2.64.7,8.9,2.92,15.02,5.56,18.78c2.64,3.76,16.69,2.78,18.78,7.09s4.03,9.87,5.56,21.7c1.43,11.07,1.04,15.83.98,16.39h1.8c-.11-1.24-2.81-30.66-4.45-34.61-1.67-4.03-6.54-11.96-11.96-19.75Z" style="fill: #24321e; stroke: #24321e; stroke-miterlimit: 10;"/>
    <path d="M1653.32,267.09h21.4s0-.14-.05-.35h-21.39c.02.23.03.35.03.35Z" style="fill: #24321e; stroke: #24321e; stroke-miterlimit: 10;"/>
    <path d="M1626.06,267.09h15.52s.12-.12.32-.33h-16.1c.16.21.26.33.26.33Z" style="fill: #24321e; stroke: #24321e; stroke-miterlimit: 10;"/>
    <path d="M1691.37,267.09h15.12s.09-.14.24-.37h-15.09c-.16.24-.26.37-.26.37Z" style="fill: #24321e; stroke: #24321e; stroke-miterlimit: 10;"/>
    <path d="M1710.73,267.09h6.79s.05-.13.15-.37h-6.78c-.1.24-.17.37-.17.37Z" style="fill: #24321e; stroke: #24321e; stroke-miterlimit: 10;"/>
    <path d="M1198.03,267.09h6.54s0-.02-.02-.07h-6.52s0,.07,0,.07Z" style="fill: #24321e; stroke: #24321e; stroke-miterlimit: 10;"/>
    <path d="M1176.61,267.09h7.79s0-.02.02-.05h-7.95c.08.03.14.05.14.05Z" style="fill: #24321e; stroke: #24321e; stroke-miterlimit: 10;"/>
    <path d="M1130.15,267.09h8.07s0-.02,0-.02h-8.08s.02.02.02.02Z" style="fill: #24321e; stroke: #24321e; stroke-miterlimit: 10;"/>
    <path d="M1149.63,267.09h14.88s.02-.02.04-.04h-14.92s0,.04,0,.04Z" style="fill: #24321e; stroke: #24321e; stroke-miterlimit: 10;"/>
    <path d="M1187.18,267.09h6.54s0-.02,0-.06h-6.5s-.05.06-.05.06Z" style="fill: #24321e; stroke: #24321e; stroke-miterlimit: 10;"/>
    <polygon points="1121.55 267.09 1127.23 267.09 1127.23 267.08 1121.54 267.08 1121.55 267.09" style="fill: #24321e; stroke: #24321e; stroke-miterlimit: 10;"/>
    <path d="M1195.52,267.09s0-.04,0-.06h0s0,.06,0,.06Z" style="fill: #24321e; stroke: #24321e; stroke-miterlimit: 10;"/>
    <path d="M1128.9,262.61c.97-2.23,3.48-2.92,4.31-1.67.83,1.25,2.64-7.09-1.11-8.07s-6.82-.97-5.7,1.25c1.11,2.23,1.81,5.29.28,6.12-1.5.82.48,6.64.55,6.83h2.91c-.19-.21-2.16-2.35-1.23-4.47Z" style="fill: #24321e; stroke: #24321e; stroke-miterlimit: 10;"/>
    <path d="M1295.09,267.09s-.02-.05-.06-.12h-5.07c0,.08,0,.12,0,.12h5.13Z" style="fill: #24321e; stroke: #24321e; stroke-miterlimit: 10;"/>
    <path d="M1443.98,266.89h-1.17c.62.16,1.05.21,1.05.21,0,0,.04-.08.11-.21Z" style="fill: #24321e; stroke: #24321e; stroke-miterlimit: 10;"/>
    <path d="M1337.95,267.09s-.17-.03-.39-.15h-13.4c-.03.1-.04.15-.04.15h13.83Z" style="fill: #24321e; stroke: #24321e; stroke-miterlimit: 10;"/>
    <path d="M1318.45,267.09s.02-.05.06-.13h-21.31c0,.09,0,.13,0,.13h21.26Z" style="fill: #24321e; stroke: #24321e; stroke-miterlimit: 10;"/>
    <path d="M1623.01,256.57c1.19-5.83,4.51-2.39,4.51-2.39,0,0-3.18-5.3-6.5,1.86-2.78,6-1.37,9.7-.84,10.74h5.61c-.9-1.14-3.8-5.25-2.79-10.21Z" style="fill: #24321e; stroke: #24321e; stroke-miterlimit: 10;"/>
    <path d="M1296.07,266.97h-.05c.03.07.05.12.05.12,0,0,0-.05,0-.12Z" style="fill: #24321e; stroke: #24321e; stroke-miterlimit: 10;"/>
    <path d="M1900.75,239.4c-1.85-2.11-4.76-2.38-6.87-2.64-2.11-.26-3.17,1.06-6.08,0-2.91-1.06-9.78-7.4-12.16-7.66-2.38-.26-5.02,2.64-6.87,1.85-1.85-.79-1.59-6.08-5.02-6.61s-6.34-3.44-8.19-3.44-3.7-.53-2.91,3.96c.79,4.49,1.59,8.98,3.7,9.78,2.11.79,7.13,3.7,8.46,5.55,1.32,1.85,3.7,5.81,3.96,8.72.26,2.91,0,5.81.26,8.72.26,2.91,1.85,8.98,1.85,8.98h-14.8s-1.32-5.02-1.59-6.61c-.26-1.59.53-4.76.53-4.76,0,0,3.44-1.59,4.76-2.11,1.32-.53,2.11-3.7.79-5.02-1.32-1.32,1.32-4.23-1.06-6.08-2.38-1.85-4.34-3.44-7.06-1.32-2.72,2.11-6.15,6.61-5.89,7.93.26,1.32-7.4,0-6.34,3.44,1.06,3.44,5.55,5.02,6.34,4.49.79-.53-1.06,3.17.53,5.55,1.59,2.38,1.59,4.49,1.59,4.49h-17.97s-4.49-.53-4.49-6.61,6.08-11.63,6.08-11.63c0,0-7.13,4.76-8.98,9.25-1.85,4.49,0,8.98,0,8.98h-11.43s-4.88-3.61-.55-6.37c4.33-2.76,3.31,3.7,3.31,3.7,0,0,1.73-9.14-1.97-6.77-3.7,2.36-4.25,4.17-4.25,4.17,0,0-1.65-1.34,1.34-6.69,2.99-5.36,5.99-3.47,5.99-3.47,0,0-4.49-3.39-7.17,3.31-1.06,2.65-1.49,4.25-1.62,5.23-.43-1.84-1.48-4.73-3.82-5.15-3.47-.63-4.57,3.54-4.57,3.54,0,0,2.91-2.84,4.41-1.34s-.39,9.84-.39,9.84h-48.05s2.21-3.68,0-8.95c-2.21-5.27-7.3-7.13-7.3-7.13,0,0,4.59,4.08,4.59,7.81s-3.4,8.27-3.4,8.27h-26.53c.26-.65.52-2.09.71-5.04.51-7.81-1.53-11.04-1.53-11.04,0,0,.34,6.28-.85,9.51-.97,2.62-2.16,5.63-2.57,6.67h3.46c.11.23.41.71.73,0l166.73-.1s-5.81-3.17-6.34-6.34,3.17-12.16,5.02-12.95c1.85-.79,9.51-2.38,11.36-2.64,1.85-.26,3.96-3.17,2.11-5.29Z" style="fill: #24321e; stroke: #24321e; stroke-miterlimit: 10;"/>
    <path d="M1711.92,256.14c-1.53-5.44-8.15-8.49-8.15-8.49,0,0,5.94,4.93,5.94,9.85,0,4.12-2.25,8.05-2.99,9.23h4.17c.56-1.31,2.32-5.97,1.02-10.59Z" style="fill: #24321e; stroke: #24321e; stroke-miterlimit: 10;"/>
    <path d="M1654.85,258.18c2.38-1.7,4.42-1.87,4.42-1.87,0,0-5.04.09-6.09,2.63-1.05,2.54-1.38-8.01.9-9.7s3.65.39,3.65.39c0,0-1.66-4.23-5.36.72-1.78,2.38-2.63,5.08-3.05,7.25.24-4.38.09-11.16-2.73-14.48-4.36-5.15-8.99-4.88-8.99-4.88,0,0,7.42.07,8.6,11.85,1.01,10.12-3.12,15.39-4.3,16.68h11.4c-.13-1.44-.51-7.11,1.56-8.59Z" style="fill: #24321e; stroke: #24321e; stroke-miterlimit: 10;"/>
    <path d="M1693.24,259.88c-.85-3.91-4.76-8.83-4.76-8.83,0,0-.51-3.57,4.25-3.57s9-4.42,1.87-12.74-9-13.62-15.29-13.86c-6.28-.24-8.66,7.57-12.4,13.01-3.74,5.44-2.89,11.72,1.02,12.74,3.91,1.02,6.79.68,6.79,2.04s-.17,5.27-1.7,6.62-2.72,8.32-.51,9.17c1.61.62,2.04,1.72,2.16,2.28h16.96c.66-.96,2.29-3.72,1.6-6.87Z" style="fill: #24321e; stroke: #24321e; stroke-miterlimit: 10;"/>
    <path d="M1447.33,258.96c-3.73-4.01-6.22-1.52-6.22-1.52,0,0,3.6-.55,4.15,2.9.47,2.95-.87,5.77-1.27,6.54h4.06c.57-.89,2.53-4.44-.71-7.92Z" style="fill: #24321e; stroke: #24321e; stroke-miterlimit: 10;"/>
    <path d="M1327.02,252.46c-.14-4.84-1.38-11.75-1.38-11.75,0,0,7.74,1.24,9.13-.83s.55-2.63-.83-9.82c-1.38-7.19-1.24-12.72-4.56-12.72s-3.87-3.6-6.5-7.33c-2.63-3.73-7.05-3.73-6.64,2.07.41,5.81.69,13.28.97,17.56.28,4.29-1.66,3.04-2.49,8.3-.83,5.25,3.04,5.81,4.01,4.56.97-1.24,3.18-1.94,3.18-1.94,0,0,2.21,8.16,1.94,11.34-.26,2.98-4.78,13.73-5.34,15.05h5.65c.36-1.19,2.99-9.99,2.86-14.5Z" style="fill: #24321e; stroke: #24321e; stroke-miterlimit: 10;"/>
    <path d="M1293.01,255.76c-.85-5.61-2.56-24.65-1.1-29.78,1.46-5.13.85-21.48-2.44-25.87-3.3-4.39-9.27-8.18-9.27-8.18,0,0,2.44,3.05,1.46,9.64-.98,6.59-3.54,6.1-1.46,12.08,2.07,5.98,7.2,9.15,8.54,12.45,1.34,3.3,1.71,23.43,2.68,29.41.9,5.5,3.23,10.66,3.61,11.46h.99c-.3-.81-2.22-6.05-3.01-11.21Z" style="fill: #24321e; stroke: #24321e; stroke-miterlimit: 10;"/>
    <path d="M1298.36,247.58c.77-4.64,2.71-4,6.77-10.32,4.06-6.32,6.97-8.45,5.42-17.54s.97-16.06.97-16.06c0,0-8.51,2.52-11.03,11.03-2.52,8.51-2.9,18.16-2.52,20.69.39,2.53-.5,6.6-.77,11.97-.26,5.09-1.04,18.29-1.12,19.63h1.12c.04-1.37.42-14.99,1.16-19.39Z" style="fill: #24321e; stroke: #24321e; stroke-miterlimit: 10;"/>
    <path d="M1288.62,248.44c-1.71-6.96-3.17-7.08-3.91-12.94s.37-16.6-8.66-24.29c-9.03-7.69-26.24-6.59-26.24-6.59,0,0,3.54,2.81,5.49,9.76,1.95,6.96,5.61,11.09,11.11,15.12s13.18,4.77,15.13,7.7,4.03,5.25,5.61,10.98c1.5,5.43,1.69,17.51,1.71,18.78h1.1c.03-1.21.26-11.98-1.35-18.54Z" style="fill: #24321e; stroke: #24321e; stroke-miterlimit: 10;"/>
    <path d="M1208.18,243.27s-5.01,9.32-5.29,13.77c-.26,4.17,1.43,9.35,1.65,9.99h3.31c-.38-.48-2.88-3.81-3.01-9.85-.14-6.54,3.34-13.91,3.34-13.91Z" style="fill: #24321e; stroke: #24321e; stroke-miterlimit: 10;"/>
    <path d="M1438.2,259.65c1.8-6.64,6.08-6.36,6.08-6.36,0,0-5.26-.55-6.36,2.35-1.1,2.9-1.52-5.39-3.59-6.5s-2.9,2.35-2.9,2.35c0,0,3.46-5.25,3.73,4.84.21,7.85-1.32,9.99-2.02,10.56h9.68c-1.99-.52-5.99-2.18-4.62-7.24Z" style="fill: #24321e; stroke: #24321e; stroke-miterlimit: 10;"/>
    <path d="M1343.62,254.12c5.18-4.79,8.3-2.67,8.67-2.38-.51-.4-6.45-4.79-12.41,4.73-5,7.99-3.22,10-2.32,10.48h5.96c-.71-1.09-4.99-8.12.1-12.83Z" style="fill: #24321e; stroke: #24321e; stroke-miterlimit: 10;"/>
    <rect x=".5" y="267.09" width="1900.97" height="120.9" style="fill: #24321e; stroke: #24321e; stroke-miterlimit: 10;"/>
  </g>
</svg>