<?xml version="1.0" encoding="UTF-8"?>
<svg id="Layer_1" data-name="Layer 1" xmlns="http://www.w3.org/2000/svg" viewBox="0 0 1076.3 286.12">
  <defs>
    <style>
      .cls-1 {
        opacity: .1;
      }

      .cls-2 {
        fill: #603913;
        font-family: Merriweather-Bold, Merriweather;
        font-size: 140px;
        font-weight: 700;
        letter-spacing: .01em;
      }

      .cls-3 {
        stroke: #58595b;
        stroke-width: 2px;
      }

      .cls-3, .cls-4 {
        fill: none;
        stroke-miterlimit: 10;
      }

      .cls-4 {
        stroke: #ecf4dd;
      }

      .cls-5 {
        fill: #6d6e71;
      }

      .cls-5, .cls-6, .cls-7, .cls-8, .cls-9, .cls-10 {
        stroke-width: 0px;
      }

      .cls-6 {
        fill: #808285;
      }

      .cls-7 {
        fill: #b4d670;
      }

      .cls-8 {
        fill: #939598;
      }

      .cls-9 {
        fill: #006838;
      }

      .cls-10 {
        fill: #009444;
      }
    </style>
  </defs>
  <g>
    <path class="cls-3" d="M879.51,142.4c3.1,1.58,6.7.05,7.69-2.6,1.32-3.57-2.8-7.24-3.92-6.85-.78.27-1.03,2.85.1,4.11,1.53,1.7,5.61.97,7.31-1.3,2.49-3.32-.79-9.05-2.21-8.96-.98.06-2.12,2.96-1.16,4.5,1.08,1.73,4.77,1.71,6.56.11,3-2.67.6-9.67-.88-9.77-1-.07-2.51,2.97-1.69,4.08.9,1.22,5.08.68,6.96-1.78,2.36-3.09.51-8.42-.91-8.58-1.08-.13-2.79,2.63-2.11,4.01.76,1.53,4.62,1.61,7.16.13,3.97-2.33,5.2-8.83,3.19-10.65-1.18-1.07-3.86-.88-4.78.51-.91,1.37.08,3.64,1.46,4.67,2.06,1.54,5.56.74,7.18-1.06,3.45-3.83-.86-13.02-2.85-12.9-.96.06-1.95,2.3-1.39,3.78.91,2.39,6.05,3.31,7.79,1.5,2.3-2.39-1.28-9.67-2.98-9.51-.93.09-1.83,2.44-1.14,3.31.9,1.13,5.04.4,6.66-2.08,2.11-3.24-.57-8.66-2.33-8.73-1.18-.04-2.72,2.26-2.16,3.83.4,1.12,1.91,1.97,2.89,1.66,1.25-.4,2.3-2.87,1.78-11.39"/>
    <path class="cls-6" d="M871.2,156.68c-2.08-2.35-4.85-5.93-7.13-10.77-1.03-2.19-3.22-7.32-4.21-16.48-1.84-16.95,3.04-23.59-1.97-28.82-2.47-2.57-4.29-1.63-9.72-4.03-9.46-4.18-14.44-11.67-18.47-17.72-6.82-10.26-15.95-30.22-10.64-34.77,4.06-3.48,17.95.84,61.88,36.31,1.15,8.26,1.7,15.26,1.98,20.6.37,7.06.22,10.06-.94,13.53-2.31,6.94-5.51,6.38-6.24,10.85-1.49,9.14,11.23,15.66,8.33,23.63-.32.88-.74,1.52-.97,1.86-3.97,1.94-7.94,3.88-11.9,5.82Z"/>
    <path class="cls-8" d="M929.09,76.89c-2.78-1.91-6.05-3.42-9.82-3.95-4.82-.67-7.14.72-15.89,1.78-7.89.95-7.08-.04-11.48.85-3.09.63-11.03,2.25-16.92,8.26-4.42,4.51-2.94,6.66-8.19,12.14-.8.84-4.24,4.34-9.75,7.16-8.36,4.27-16.14,4.22-19.85,4.16-3.62-.06-14.53-.39-24.77-7.08-8.03-5.24-11.6-11.74-20.17-12.63-.98-.1-4.41-.46-5.12.92-.64,1.23,1.15,3.41,4.35,6.4,8.1,7.55,15.53,11.34,15.53,11.34,5.4,2.75,12.69,6.4,23.88,8.73,19.67,4.09,48.25,3.42,54.96-7.61,3.26-5.36,5.24-10.31,5.24-10.31,2.26-5.66,1.86-7.07,3.78-8.94,4.23-4.14,12.02-3.03,14.43-2.69,8.04,1.14,10.52,5.12,14.11,3.8,2.25-.83,4.7-3.65,5.67-12.32Z"/>
    <path class="cls-9" d="M919.45,74.92c.43-.66,1.32-1.78,2.71-2.1.59-.14,2.23-.36,5.39,2.34,3.2,2.73,3.53,4.69,5.57,7.06,2.83,3.29,6.48,4.51,9.21,5.42,5.66,1.89,9.77.82,15.9.31,2.77-.23,8.85.17,21.02.97,8.88.58,18.53,1.22,30.48,3.04,17.04,2.6,13.22,3.72,33.94,7.49,3.42.62,22.25,3.99,30.25,11.41.81.75,2.25,2.23,2.38,4.29.3,4.93-7.24,8.86-8.21,9.36-4.85,2.46-9.49,2.4-11.45,2.32-10.26-.4-17.74-3.93-27.99-8.34-15.47-6.66-23.35-10.02-29.94-11.25-5.78-1.08-11.22-1.35-22.09-1.89-12.82-.64-22.04-.9-22.04-.9-8.73-.25-11.76-.22-16.33-1.68-2.82-.9-8.02-2.58-12.28-6.97-7.45-7.69-6.76-18.3-6.52-20.84Z"/>
    <path class="cls-9" d="M869.32,157.24c1.17.28,3,.7,5.27,1.12,4.91.9,6.27.77,9.55,1.54,2.53.59,4.89,1.15,7.57,2.66,1,.57,4.49,2.65,7.3,6.77,2.8,4.12,1.99,5.95,4.17,10.01,2.34,4.36,5.56,6.49,8.41,8.68,1.3.99,6.88,6.91,18.04,18.75,10.63,11.28,15.95,16.91,19.44,21.58,9.07,12.12,13.6,18.17,16.1,24.13,1.27,3.04,3.81,9.72,10.16,13.42,3.29,1.92,5.38,1.74,6.43,1.51,4.08-.89,6.06-5.48,6.66-6.86.74-1.71,2.68-7.01-1.08-17.52-1.96-5.5-5.19-11.6-11.64-18.99-6.89-7.9-9.19-7.77-22.15-19.47-7.24-6.53-12.59-12.05-16.4-15.99-7.88-8.15-14.52-15.75-16.12-17.59-8.35-9.59-9.64-11.86-15.06-16.66-6.93-6.16-10.72-9.42-16.49-9.68-1-.04-5.72,1.47-15.17,4.49-1.67.53-3.91,1.29-4.92,3.3-.91,1.8-.42,3.76-.05,4.79Z"/>
    <path class="cls-5" d="M869.46,104.52c1.23,2.44,4.1,3.35,6.2,3.31,3.82-.08,8.34-3.39,7.92-7.73-.35-3.59-3.93-6.33-7.54-6.08-4.11.28-6.09,4.3-6.28,4.7-.34.72-1.56,3.3-.3,5.8Z"/>
  </g>
  <g>
    <g>
      <path class="cls-7" d="M102.21,253.66c4.78.76,9.49-2.62,18.93-9.38,7.98-5.72,8.43-7.8,13.02-8.83,6.88-1.54,10.34,2.14,14.97-.46,3.95-2.22,3.75-6.19,6.28-10.61,4.23-7.36,12.33-9.51,25.86-13.08,16.56-4.38,22.02-1.79,36.09-7.88,4.39-1.9,4.36-2.37,10.17-5.34,28.31-14.44,42.95-10.35,47.43-20.47,3.85-8.7-2.32-22.2-8.63-23.89-2.1-.56-4.45.51-9.16,2.65-8.24,3.75-10.76,7.56-15.66,6.83-1.62-.24-4.11-1.07-4.44-2.56-.4-1.81,2.5-4,7.51-6.87,14.14-8.12,18.8-6.57,21.71-11.05,5-7.69-1.6-23.32-7.71-24.29-3.74-.6-11.15,3.69-11.47,3.88-.29.17-.49.3-.72.44-8.39,5.19-11.24,10.21-17.9,13.09-3.17,1.37-7.59,2.42-8.21,1.33-.85-1.51,5.74-6.93,9.88-9.93,11.74-8.5,17.29-7.28,19.03-12.13,2.79-7.77-7.86-20.96-13.75-20.08-1.26.19-1.53.9-5.58,3.78-3.21,2.29-4.38,2.79-7.89,5.02-10.89,6.9-13.56,10.84-16.21,9.55-1.48-.72-2.31-2.76-2.11-4.25.31-2.24,2.99-3.44,4.69-4.3,2.75-1.38,11.81-5.91,13.54-10.63,2.38-6.51-7-19.48-15.6-19.28-3.58.09-6.28,2.44-11.59,7.08-4.69,4.1-7.44,7.68-8.96,9.53-4.7,5.73-9.99,9.36-20.55,16.61-15.36,10.55-15.87,7.64-25.96,15.83-3.71,3.01-11.33,9.64-16.85,14.55-6.33,5.62-8.38,7.65-12.56,8.85-5.67,1.63-8-.32-13.23,2.4-3.54,1.84-4.54,3.81-8.32,4.53-3.23.61-4.47-.45-7.23-.44-8.28.03-14.15,9.65-14.42,10.12-4.76,8.03-2.58,16.85-1.67,20.51,1.32,5.35,4.7,10.52,11.46,20.86,6,9.18,7.46,10.09,8.97,14.75,2.49,7.68-.07,9.55,2.1,16.62,1.89,6.15,7.22,15.73,14.78,16.93Z"/>
      <g class="cls-1">
        <path class="cls-9" d="M208.15,77.87c-5.85,8.64-14.43,15.01-22.45,21.5-9.21,7.44-18.43,14.89-27.64,22.33s-17.62,13.85-27.11,19.91c-9.5,6.07-19.25,11.93-29.33,17.01-11.17,5.64-23.02,9.76-35.28,12.29-1.32.27-2.09,1.83-1.75,3.08.38,1.37,1.75,2.02,3.08,1.75,11.18-2.31,22.05-5.95,32.39-10.81,10.31-4.84,20.17-10.73,29.83-16.74,19.98-12.42,37.8-27.87,56.06-42.63,9.45-7.64,19.62-14.97,26.52-25.16,1.81-2.67-2.52-5.18-4.32-2.52h0Z"/>
      </g>
      <g class="cls-1">
        <path class="cls-9" d="M216.1,86.37c-17.32,15.88-34.45,32.03-52.22,47.41-8.55,7.4-17.09,14.63-27.08,20.03-10.42,5.63-21.17,10.7-31.76,15.99-5.93,2.97-11.87,5.93-17.8,8.9s-11.7,5.9-17.72,8.48c-1.24.53-1.52,2.36-.9,3.42.75,1.28,2.17,1.43,3.42.9,10.89-4.66,21.38-10.31,31.97-15.6,10.59-5.29,21.24-10.49,31.77-15.9,5.09-2.61,10.06-5.43,14.69-8.8s9.08-7.14,13.47-10.88c8.86-7.55,17.48-15.37,26.06-23.23,9.89-9.06,19.77-18.12,29.66-27.19,2.38-2.18-1.17-5.71-3.54-3.54h0Z"/>
      </g>
      <g class="cls-1">
        <path class="cls-9" d="M239.83,101.07c-11.05,4.69-21.63,10.48-31.52,17.29-4.97,3.43-9.77,7.11-14.39,11-4.9,4.13-9.64,8.45-14.78,12.28-10.16,7.56-21.17,14.09-32.03,20.58s-21.75,12.64-32.9,18.46c-12.6,6.58-25.44,12.71-38.52,18.27-1.24.53-1.52,2.36-.9,3.42.75,1.29,2.17,1.43,3.42.9,23.3-9.9,45.79-21.6,67.59-34.45,10.89-6.42,21.8-12.96,32.17-20.2s19.12-16.03,29.23-23.37c10.91-7.93,22.73-14.59,35.15-19.86,1.24-.53,1.52-2.36.9-3.42-.75-1.29-2.17-1.43-3.42-.9h0Z"/>
      </g>
      <g class="cls-1">
        <path class="cls-9" d="M244.73,109.99c-4.63,3.6-10.46,5.3-15.65,7.91-5.71,2.87-10.59,7.05-15.39,11.22-9.51,8.27-19.15,16.43-29.45,23.73-5.22,3.7-10.6,7.17-16.17,10.34s-11.23,6.1-16.42,9.84c-2.49,1.8-4.8,3.83-7.23,5.71s-5.03,3.33-7.81,4.6-5.72,2.57-8.43,4.18-5.19,3.32-7.72,5.06c-2.84,1.95-5.68,3.9-8.69,5.58s-6.01,2.92-9.19,4.02c-6.51,2.26-13.22,4.02-19.28,7.38-2.82,1.56-.3,5.88,2.52,4.32,5.3-2.93,11.14-4.53,16.85-6.45,5.94-2,11.43-4.59,16.66-8.06s10.07-7.16,15.65-9.83c2.87-1.37,5.86-2.52,8.6-4.16s5.12-3.7,7.56-5.68c4.9-3.99,10.36-7.1,15.87-10.17s11.08-6.39,16.37-10c10.65-7.25,20.63-15.45,30.38-23.86,5.26-4.53,10.37-9.41,16.51-12.74s12.53-5.15,17.97-9.37c1.07-.83.87-2.66,0-3.54-1.05-1.05-2.47-.83-3.54,0h0Z"/>
      </g>
      <g class="cls-1">
        <path class="cls-9" d="M259.8,123.68c-22.83,10.89-44.59,23.84-66.07,37.16-5.42,3.36-10.83,6.73-16.23,10.12s-10.54,7.08-15.7,10.84c-5.13,3.74-10.57,6.79-16.24,9.63s-11.66,5.82-17.49,8.73c-13.25,6.62-26.5,13.23-39.75,19.85-2.88,1.44-.35,5.75,2.52,4.32,11.84-5.91,23.68-11.83,35.53-17.74,5.85-2.92,11.69-5.84,17.54-8.76,5.63-2.81,11.35-5.53,16.59-9.04s10.11-7.48,15.4-10.91,10.85-6.83,16.29-10.22c10.74-6.68,21.52-13.3,32.46-19.64,12.31-7.13,24.83-13.91,37.67-20.04,1.22-.58,1.54-2.32.9-3.42-.73-1.25-2.2-1.48-3.42-.9h0Z"/>
      </g>
      <g class="cls-1">
        <path class="cls-9" d="M264.09,134c-23.75,7.27-43.42,22.82-63.43,36.91-10.42,7.34-21.09,14.08-32.5,19.78-6.38,3.19-12.84,6.24-19.03,9.8s-11.82,7.48-17.6,11.41c-12.33,8.39-25.57,17.07-40.79,18.66-1.34.14-2.5,1.05-2.5,2.5,0,1.24,1.15,2.64,2.5,2.5,13.77-1.44,26.09-7.96,37.5-15.45,5.85-3.84,11.54-7.91,17.43-11.67s12.53-7.27,19.04-10.49,12.36-6.08,18.31-9.55c5.29-3.09,10.41-6.44,15.46-9.91,10.23-7.03,20.12-14.53,30.46-21.38,11.38-7.54,23.37-14.29,36.48-18.31,3.07-.94,1.76-5.77-1.33-4.82h0Z"/>
      </g>
      <g class="cls-1">
        <path class="cls-9" d="M270.28,162.73c-10.65,5.74-22.24,9.32-33.69,13.1s-23.68,8.59-35.13,13.89-22.67,11.13-33.84,17.02-22.92,12.21-34.28,18.51c-6.43,3.56-12.83,7.17-19.21,10.83-3.06,1.75-6.07,3.59-9.17,5.28-2.74,1.5-5.88,2.94-9.07,2.19s-4.47,4.09-1.33,4.82c6.59,1.55,12.4-2.38,17.84-5.53s11.33-6.5,17.03-9.7c11.54-6.47,23.17-12.78,34.86-18.99,22.63-12.02,45.4-23.97,69.73-32.2,13.12-4.44,26.53-8.29,38.78-14.9,2.83-1.53.31-5.85-2.52-4.32h0Z"/>
      </g>
      <path class="cls-10" d="M271.84,181.67c-3.46-9.11-6.93-18.23-10.39-27.34,2.36-2.17,5.84-4.69,10.54-6.19,3.13-1,8.96-2.86,15.03-.17,1.55.69,5.38,2.38,7.19,6.31,2.38,5.18-.37,10.72-1.58,13.15-5.33,10.71-17.75,13.62-20.79,14.24Z"/>
      <path class="cls-10" d="M264.4,144.71c-3.26-8.02-7.53-17.43-10.78-25.45,2.53-2.36,7.51-5.15,13.64-7.21,7.17-2.41,13.06-1.8,14.7-1.59,3.99.51,6.5.82,8.41,2.77,4.02,4.11,2.29,12.35.4,16.59-5.9,13.18-24.87,14.85-26.36,14.89Z"/>
      <path class="cls-10" d="M246.59,118.15c-1.24-3.67-3.51-8.74-7.96-13.29-3.91-4-7.12-5.17-7.08-7.68.02-.95.52-3.06,11.6-7.91,9.84-4.31,14.85-6.43,19.56-5.19,4.48,1.19,10.31,4.88,10.98,9.95.66,4.97-3.95,8.97-9.36,13.67-3.61,3.14-9.38,7.32-17.73,10.44Z"/>
      <path class="cls-10" d="M220.29,96.8c-1.78-2.44-4.79-6.21-9.13-10.2-5.85-5.36-9.23-6.62-9.21-9.29.03-3.9,7.28-6.56,13.03-8.67,8.13-2.98,16.17-5.93,20.63-1.85,3.9,3.57,2.83,10.47,2.63,11.78-1.95,12.56-16.68,17.8-17.95,18.23Z"/>
      <path class="cls-10" d="M178.76,114.49c-.88-2.21-3.47-9.07-7.82-9.6-2.2-.27-3.95,1.2-5.19,2.18-11.93,9.4-21.54,8.58-22.14,14.09-.35,3.18,2.61,5.81,5.2,8.39,8.33,8.29,13.21,19.49,20.27,28.89,6.47,8.62,14.36,24,19.51,53.62,6.75,1.05,26.77,3.63,30.9-4.85,1.48-3.03.41-6.42-.2-8.29-13.87-42.32-33.25-66.16-40.53-84.44Z"/>
      <path class="cls-10" d="M144.96,234.77c-1.44-2.84,10.51-13.73,21.45-20.16,24.28-14.25,51.18-14.89,53.16-9.74.6,1.55-1.18,3.33-.02,5.51,1.35,2.54,5.04,2.52,7.92,3.17,8.79,2,16.59,11.76,17.78,20.81.19,1.41,1.03,7.83-2.94,13-5.72,7.46-16.63,6.01-18.24,5.79-8.8-1.17-14.87-7.26-15.27-7.66-3.59-3.69-4.61-7.15-9.62-9.8-1.87-.99-3.35-1.36-6.19-2.06-7.52-1.85-13.54-2.03-14.38-2.05-16.9-.4-32.15,6.13-33.65,3.18Z"/>
      <path class="cls-10" d="M114.75,144.57c3.14,3.15,7.64,8.27,11.41,15.51,2.37,4.55,2.6,6.38,7.3,21.03,5.68,17.72,5.8,16.46,7.55,23.35,2.95,11.6,1.96,12.57,4.75,18.91,2.46,5.58,5.02,8.91,3.61,10.97-1.36,1.98-6.42,1.47-9.06.93-1.65-.34.53-3.61.02-6.98-.39-2.61-.96-3.81-2.49-8.09-2.09-5.83-3.81-11.77-5.77-17.64-3.4-10.18-5.1-15.27-5.43-16.22-4.37-12.47-6.56-18.7-8.57-22.09-6.02-10.12-12.7-14.1-11.25-17.33.91-2.03,4.42-2.44,7.94-2.34Z"/>
      <line class="cls-4" x1="182.05" y1="177.15" x2="184.08" y2="181.53"/>
      <line class="cls-4" x1="184.87" y1="184.61" x2="186.58" y2="189.21"/>
      <line class="cls-4" x1="187.21" y1="192.42" x2="188.61" y2="197.19"/>
      <line class="cls-4" x1="189.33" y1="200.46" x2="190.23" y2="204.7"/>
      <line class="cls-4" x1="111.72" y1="147.84" x2="113.34" y2="149.96"/>
      <line class="cls-4" x1="114.67" y1="151.76" x2="116.42" y2="154.2"/>
      <line class="cls-4" x1="117.94" y1="156.19" x2="119.59" y2="159.1"/>
      <line class="cls-4" x1="120.82" y1="161.42" x2="122.6" y2="164.72"/>
      <line class="cls-4" x1="123.35" y1="167.15" x2="124.96" y2="170.54"/>
      <line class="cls-4" x1="125.66" y1="173.45" x2="127.29" y2="177.9"/>
      <line class="cls-4" x1="128.32" y1="180.11" x2="129.83" y2="184.11"/>
      <line class="cls-4" x1="130.62" y1="186.02" x2="131.98" y2="189.8"/>
      <line class="cls-4" x1="132.65" y1="191.91" x2="133.96" y2="196.33"/>
      <line class="cls-4" x1="135.03" y1="198.69" x2="136.17" y2="203.3"/>
      <line class="cls-4" x1="137.32" y1="206.51" x2="138.39" y2="210.65"/>
      <line class="cls-4" x1="139.07" y1="213.29" x2="140.77" y2="217.54"/>
      <line class="cls-4" x1="141.27" y1="220.86" x2="142.74" y2="225.35"/>
      <line class="cls-4" x1="142.41" y1="228.22" x2="143.99" y2="232.09"/>
      <line class="cls-4" x1="216.89" y1="206.86" x2="213.72" y2="206.01"/>
      <line class="cls-4" x1="210.02" y1="205.85" x2="206.11" y2="205.87"/>
      <line class="cls-4" x1="202.24" y1="206.24" x2="198.3" y2="207.01"/>
      <line class="cls-4" x1="194.58" y1="207.48" x2="189.72" y2="208.54"/>
      <line class="cls-4" x1="185.59" y1="209.82" x2="181.22" y2="211.07"/>
      <line class="cls-4" x1="177.67" y1="212.35" x2="172.9" y2="214.64"/>
      <line class="cls-4" x1="169.85" y1="216.24" x2="166.29" y2="219.11"/>
      <line class="cls-4" x1="163.18" y1="220.58" x2="159.48" y2="223.65"/>
      <line class="cls-4" x1="156.44" y1="225.79" x2="153.03" y2="228.56"/>
      <line class="cls-4" x1="149.91" y1="230.9" x2="146.62" y2="234.54"/>
      <line class="cls-4" x1="181.01" y1="174.56" x2="179.09" y2="169.8"/>
      <line class="cls-4" x1="176.65" y1="165.19" x2="174.14" y2="160.82"/>
      <line class="cls-4" x1="171.93" y1="157.25" x2="169.07" y2="152.48"/>
      <line class="cls-4" x1="166.96" y1="148.97" x2="163.92" y2="145.33"/>
      <line class="cls-4" x1="162.14" y1="141.66" x2="158.59" y2="136.46"/>
      <line class="cls-4" x1="156.51" y1="133.77" x2="153.77" y2="129.22"/>
      <line class="cls-4" x1="150.78" y1="127.11" x2="146.98" y2="122.41"/>
      <line class="cls-4" x1="217.11" y1="201.71" x2="215.36" y2="196.39"/>
      <line class="cls-4" x1="213.58" y1="192.32" x2="211.78" y2="187.84"/>
      <line class="cls-4" x1="210.48" y1="184.75" x2="208.49" y2="180.14"/>
      <line class="cls-4" x1="207.71" y1="177.19" x2="206.13" y2="172.9"/>
      <line class="cls-4" x1="204.79" y1="170.3" x2="202.67" y2="165.84"/>
      <line class="cls-4" x1="200.87" y1="163.31" x2="198.23" y2="158.07"/>
      <line class="cls-4" x1="196.48" y1="155.59" x2="193.83" y2="150.01"/>
      <line class="cls-4" x1="192.06" y1="146.52" x2="189.26" y2="141.49"/>
      <line class="cls-4" x1="187.57" y1="138.86" x2="185.14" y2="133.88"/>
      <line class="cls-4" x1="182.8" y1="130.46" x2="180.7" y2="125.57"/>
      <line class="cls-4" x1="179.06" y1="121.73" x2="176.98" y2="117.03"/>
      <line class="cls-4" x1="174.21" y1="113.04" x2="171.15" y2="109.11"/>
      <line class="cls-4" x1="273.45" y1="179.42" x2="272.16" y2="176.02"/>
      <line class="cls-4" x1="271.55" y1="173.76" x2="270.1" y2="170.45"/>
      <line class="cls-4" x1="269.83" y1="167.87" x2="268.6" y2="164.21"/>
      <line class="cls-4" x1="267.65" y1="161.93" x2="266.03" y2="158.51"/>
      <line class="cls-4" x1="265.14" y1="156.31" x2="263.8" y2="153.37"/>
      <line class="cls-4" x1="266.28" y1="142.72" x2="264.51" y2="138.88"/>
      <line class="cls-4" x1="264.76" y1="136.41" x2="262.54" y2="131.49"/>
      <line class="cls-4" x1="260.45" y1="129.24" x2="258.39" y2="125.2"/>
      <line class="cls-4" x1="257.03" y1="122.94" x2="255.56" y2="118.99"/>
      <line class="cls-4" x1="248.07" y1="116.13" x2="246.5" y2="111.75"/>
      <line class="cls-4" x1="245.5" y1="110.1" x2="242.88" y2="105.74"/>
      <line class="cls-4" x1="241.09" y1="103.23" x2="238.41" y2="100.41"/>
      <line class="cls-4" x1="236.73" y1="98.66" x2="233.65" y2="96.23"/>
      <line class="cls-4" x1="221.87" y1="94.2" x2="218.93" y2="90.8"/>
      <line class="cls-4" x1="217.71" y1="89.11" x2="214.81" y2="85.37"/>
      <line class="cls-4" x1="212.75" y1="83.19" x2="208.98" y2="79.93"/>
      <line class="cls-4" x1="207.04" y1="78.49" x2="203.54" y2="75.87"/>
    </g>
    <g>
      <path class="cls-7" d="M45.79,229.97c-2.39-4.29-.96-9.99,1.91-21.39,2.42-9.64,4.17-10.81,3.49-15.55-1.02-7.11-5.61-9.12-4.87-14.46.64-4.55,4.35-5.77,7.5-9.75,5.25-6.64,4.35-15.13,2.85-29.32-1.84-17.36-6.15-21.66-5.54-37.25.19-4.87.63-5,1.3-11.59,3.23-32.14-5.7-44.68,2-52.53,6.61-6.75,21.17-5.63,24.94-.2,1.26,1.8,1.11,4.43.81,9.68-.52,9.19-3.13,12.95-.73,17.37.79,1.46,2.43,3.54,3.91,3.33,1.8-.26,2.78-3.8,3.64-9.6,2.44-16.37-.62-20.28,2.45-24.63,5.28-7.49,21.93-6.71,24.98-1.23,1.87,3.36.56,11.96.5,12.33-.05.34-.1.57-.15.85-1.79,9.85-5.38,14.34-5.66,21.72-.14,3.52.46,8.11,1.68,8.31,1.69.28,4.32-7.93,5.61-12.95,3.64-14.22.57-19.08,4.39-22.46,6.13-5.41,21.98.1,23.26,6.04.27,1.27-.28,1.78-1.5,6.66-.96,3.88-1.01,5.17-1.81,9.31-2.47,12.84-5.14,16.78-3.02,18.86,1.19,1.16,3.35,1.23,4.64.51,1.94-1.09,2.1-4.07,2.28-6,.29-3.12,1.24-13.37,4.95-16.68,5.13-4.57,20.33-.2,23.18,8.08,1.19,3.45-.02,6.85-2.39,13.57-2.1,5.93-4.4,9.82-5.57,11.93-3.59,6.52-5.04,12.85-7.96,25.5-4.24,18.4-1.39,17.86-5.33,30.39-1.44,4.6-4.83,14.23-7.38,21.24-2.92,8.03-4.05,10.71-3.67,15.13.5,5.99,3.12,7.52,2.48,13.48-.44,4.04-1.89,5.68-1.21,9.55.58,3.31,1.99,4.11,2.96,6.75,2.9,7.91-3.84,16.92-4.17,17.35-5.68,7.38-14.53,8.41-18.21,8.84-5.37.63-11.3-.77-23.16-3.57-10.54-2.49-11.88-3.56-16.68-3.35-7.92.34-8.73,3.45-15.97,3.87-6.3.37-16.96-1.33-20.74-8.13Z"/>
      <g class="cls-1">
        <path class="cls-9" d="M165.35,63.79c-6.09,8.99-9.05,19.64-12.25,29.9-3.55,11.37-7.09,22.75-10.64,34.12s-6.68,22.31-8.94,33.79-4.2,23.05-5.33,34.67c-1.29,13.22-.84,26.49,1.25,39.6.21,1.33,1.88,2.08,3.08,1.75,1.42-.39,1.96-1.74,1.75-3.08-1.81-11.36-2.26-22.93-1.4-34.39.85-11.37,2.75-22.69,4.85-33.89,4.25-22.67,11.89-44.51,18.74-66.49,3.55-11.37,6.46-23.46,13.23-33.44,1.81-2.67-2.52-5.18-4.32-2.52h0Z"/>
      </g>
      <g class="cls-1">
        <path class="cls-9" d="M154.18,60.36c-8.52,22.39-17.36,44.69-25.23,67.32-1.91,5.51-3.82,11.03-5.44,16.64-1.62,5.62-2.69,11.33-3.4,17.13-1.45,11.86-2.3,23.82-3.39,35.71-.62,6.75-1.25,13.49-1.87,20.24s-1.27,13.22-1.5,19.86c-.11,3.22,4.89,3.21,5,0,.41-11.82,1.85-23.63,2.94-35.41,1.1-11.88,2.12-23.76,3.3-35.63.57-5.67,1.34-11.31,2.74-16.85s3.3-11.16,5.18-16.66c3.81-11.19,7.96-22.27,12.16-33.32,4.77-12.57,9.56-25.13,14.34-37.7.48-1.26-.53-2.74-1.75-3.08-1.41-.39-2.59.48-3.08,1.75h0Z"/>
      </g>
      <g class="cls-1">
        <path class="cls-9" d="M132.05,44.18c-.4,12.48-2.04,24.89-4.97,37.03-1.45,6.01-3.22,11.92-5.22,17.77-2.01,5.88-4.11,11.74-5.7,17.76-3.21,12.23-5.28,24.83-7.35,37.29-2.13,12.77-3.93,25.6-5.34,38.48-1.57,14.29-2.63,28.64-3.1,43-.11,3.22,4.89,3.21,5,0,.84-25.57,3.56-51.04,7.63-76.29,2.01-12.5,4.13-25.06,7.05-37.39,2.9-12.26,7.88-23.88,11.05-36.07,3.53-13.58,5.5-27.57,5.95-41.59.1-3.22-4.9-3.21-5,0h0Z"/>
      </g>
      <g class="cls-1">
        <path class="cls-9" d="M122.41,41.37c-1.77,6.08-1.4,12.43-1.95,18.68s-2.68,12.24-4.75,18.14c-4.2,11.94-8.21,23.97-11.26,36.27-1.52,6.15-2.8,12.37-3.73,18.64-.93,6.22-1.57,12.51-3,18.64s-3.93,11.98-4.45,18.38c-.26,3.2-.26,6.43-.73,9.61s-1.14,6.15-1.84,9.2c-1.62,7.03-2.98,13.96-2.84,21.21s1.08,14.58.11,21.85c-.18,1.34,1.28,2.5,2.5,2.5,1.5,0,2.32-1.16,2.5-2.5.85-6.38.23-12.8-.03-19.2-.13-3.2-.17-6.41.13-9.6s.9-6.06,1.56-9.04c1.38-6.2,2.94-12.35,3.33-18.72.19-3.14.22-6.29.88-9.38s1.72-5.95,2.61-8.91c1.81-6.03,2.63-12.29,3.49-18.51s1.93-12.51,3.34-18.69c2.81-12.36,6.69-24.44,10.84-36.4,2.31-6.66,4.94-13.29,5.96-20.3s.21-13.87,2.15-20.54c.9-3.1-3.92-4.42-4.82-1.33h0Z"/>
      </g>
      <g class="cls-1">
        <path class="cls-9" d="M104.26,33.1c-1.93,25.96-6.22,51.65-10.91,77.23-1.18,6.45-2.36,12.91-3.6,19.35-1.19,6.16-2.85,12.17-4.37,18.25-1.58,6.3-2.32,12.71-2.92,19.17-.61,6.59-1.21,13.18-1.82,19.77-1.35,14.67-2.7,29.35-4.06,44.02-.12,1.35,1.24,2.5,2.5,2.5,1.46,0,2.38-1.15,2.5-2.5,1.22-13.19,2.43-26.38,3.65-39.57.59-6.43,1.18-12.86,1.78-19.29.59-6.38,1.01-12.82,2.34-19.1s3.26-12.3,4.55-18.53c1.3-6.27,2.4-12.58,3.56-18.88,2.38-12.9,4.69-25.81,6.68-38.77,2.22-14.49,4.04-29.04,5.13-43.66.1-1.35-1.22-2.5-2.5-2.5-1.44,0-2.4,1.15-2.5,2.5h0Z"/>
      </g>
      <g class="cls-1">
        <path class="cls-9" d="M93.27,33.31c1.77,25.98-6.31,51.02-12.18,75.99-1.47,6.24-2.81,12.51-3.85,18.84-1.13,6.87-1.79,13.78-2.4,20.71s-1.2,13.55-2.39,20.26-2.84,13.47-4.32,20.19c-3.25,14.74-5.71,30.13-1.84,45.01.81,3.11,5.63,1.79,4.82-1.33-3.36-12.93-1.55-26.4,1.17-39.26,1.41-6.66,3.05-13.26,4.36-19.94s2.18-13.64,2.81-20.52c.62-6.73,1.09-13.48,2.05-20.17s2.2-12.78,3.63-19.1c2.86-12.59,6.35-25.03,9.06-37.65,3.03-14.12,5.06-28.56,4.08-43.03-.09-1.35-1.08-2.5-2.5-2.5-1.28,0-2.59,1.15-2.5,2.5h0Z"/>
      </g>
      <g class="cls-1">
        <path class="cls-9" d="M64.78,36.89c-1.6,13.07-.61,26.24-.03,39.34.59,13.19.32,26.37-.62,39.54-.94,13.15-2.41,26.26-3.93,39.36s-3.13,26.07-4.91,39.07c-1.01,7.34-2.07,14.68-3.19,22.01-.95,6.2-2.66,13.31,1.05,18.97,1.76,2.68,6.09.18,4.32-2.52-2.96-4.52-1.22-10.67-.47-15.6.98-6.43,1.91-12.87,2.81-19.32,1.8-12.95,3.44-25.93,4.97-38.92,3.04-25.92,6.07-52,5.16-78.14-.51-14.58-1.94-29.23-.15-43.78.16-1.34-1.27-2.5-2.5-2.5-1.49,0-2.33,1.15-2.5,2.5h0Z"/>
      </g>
      <path class="cls-10" d="M51.8,42.54c9.58.09,19.15.17,28.73.26,1.16-3.02,2.23-7.23,1.94-12.25-.19-3.34-.55-9.57-5.15-14.42-1.18-1.24-4.08-4.3-8.32-4.64-5.59-.45-9.69,4.14-11.49,6.16-7.93,8.88-6.2,21.76-5.7,24.89Z"/>
      <path class="cls-10" d="M88.3,36.59c8.5.27,18.63,1.03,27.13,1.3,1.27-3.25,2.06-8.99,1.78-15.57-.33-7.7-2.97-13.11-3.74-14.6-1.87-3.63-3.05-5.92-5.51-7.05-5.19-2.39-12.13,2.18-15.34,5.48-9.99,10.29-4.82,29-4.33,30.44Z"/>
      <path class="cls-10" d="M118.93,44.2c3.8-.12,9.25.26,14.99,2.9,5.04,2.32,7.25,4.97,9.53,4.04.87-.35,2.62-1.58,3.15-13.87.47-10.92.65-16.46-2.16-20.51-2.67-3.86-8.11-8.12-12.99-6.97-4.79,1.13-6.82,6.94-9.22,13.77-1.6,4.56-3.39,11.54-3.3,20.62Z"/>
      <path class="cls-10" d="M147.79,61.78c2.86.84,7.39,2.37,12.58,5.12,6.98,3.69,9.33,6.48,11.77,5.51,3.56-1.41,3.44-9.27,3.34-15.51-.14-8.81-.28-17.54-5.6-20.36-4.65-2.47-10.6,1-11.72,1.65-10.82,6.3-10.42,22.22-10.36,23.58Z"/>
      <path class="cls-10" d="M146.26,107.68c2.33.06,9.54.11,11.56,4.08,1.02,2.01.29,4.2-.16,5.73-4.4,14.71-.25,23.6-5.09,26.12-2.8,1.46-6.25-.44-9.52-2-10.54-5.02-22.52-5.73-33.64-9.15-10.18-3.13-27.07-5.23-56.04.32-3.34-6.07-12.79-24.28-6.48-31.23,2.25-2.48,5.74-2.67,7.67-2.74,43.68-1.71,72.37,8.37,91.7,8.86Z"/>
      <path class="cls-10" d="M47.98,182.47c3.11.38,8.87-14.89,10.89-27.61,4.47-28.22-4.45-54.14-9.86-54.21-1.63-.02-2.64,2.3-5.04,1.97-2.8-.39-4.09-3.92-5.71-6.44-4.94-7.68-16.64-11.69-25.35-9.62-1.36.32-7.54,1.79-10.88,7.4-4.82,8.1.37,18.01,1.14,19.47,4.18,7.98,11.91,11.64,12.42,11.87,4.65,2.12,8.18,1.88,12.38,5.73,1.56,1.44,2.43,2.72,4.08,5.18,4.36,6.52,6.65,12.22,6.96,13.01,6.34,16,5.75,32.87,8.97,33.26Z"/>
      <path class="cls-10" d="M141.32,179.44c-3.99-1.89-10.28-4.37-18.24-5.41-5-.66-6.76-.23-21.85.46-18.25.84-17.13.28-24.07,1.04-11.67,1.28-12.21,2.57-19,2.15-5.99-.37-9.94-1.65-11.33.43-1.33,1.99.92,6.65,2.35,8.98.89,1.46,3.12-1.78,6.39-2.49,2.53-.55,3.83-.43,8.29-.48,6.08-.07,12.13-.53,18.2-.73,10.53-.35,15.79-.53,16.79-.55,12.97-.23,19.46-.35,23.27.38,11.4,2.17,17.41,7.14,19.86,4.62,1.54-1.58.67-5.09-.66-8.4Z"/>
      <line class="cls-4" x1="87.68" y1="126.69" x2="82.94" y2="126.3"/>
      <line class="cls-4" x1="79.84" y1="126.63" x2="75.02" y2="126.62"/>
      <line class="cls-4" x1="71.86" y1="127.16" x2="66.99" y2="127.51"/>
      <line class="cls-4" x1="63.74" y1="127.97" x2="59.54" y2="128.62"/>
      <line class="cls-4" x1="139.4" y1="183.49" x2="136.87" y2="182.69"/>
      <line class="cls-4" x1="134.75" y1="182.06" x2="131.9" y2="181.26"/>
      <line class="cls-4" x1="129.54" y1="180.5" x2="126.29" y2="179.95"/>
      <line class="cls-4" x1="123.73" y1="179.6" x2="120.08" y2="179.06"/>
      <line class="cls-4" x1="117.58" y1="179.21" x2="113.91" y2="178.87"/>
      <line class="cls-4" x1="111" y1="179.23" x2="106.34" y2="179.25"/>
      <line class="cls-4" x1="103.96" y1="179.04" x2="99.75" y2="179.02"/>
      <line class="cls-4" x1="97.73" y1="178.94" x2="93.78" y2="178.97"/>
      <line class="cls-4" x1="91.61" y1="179.08" x2="87.1" y2="179.39"/>
      <line class="cls-4" x1="84.56" y1="179.2" x2="79.93" y2="179.75"/>
      <line class="cls-4" x1="76.58" y1="179.78" x2="72.4" y2="180.22"/>
      <line class="cls-4" x1="69.75" y1="180.51" x2="65.25" y2="180.39"/>
      <line class="cls-4" x1="62.03" y1="181.07" x2="57.4" y2="181.26"/>
      <line class="cls-4" x1="54.88" y1="182.59" x2="50.79" y2="182.45"/>
      <line class="cls-4" x1="48.14" y1="103.92" x2="50.04" y2="106.64"/>
      <line class="cls-4" x1="51.49" y1="110.12" x2="52.85" y2="113.86"/>
      <line class="cls-4" x1="53.88" y1="117.69" x2="54.57" y2="121.72"/>
      <line class="cls-4" x1="55.45" y1="125.44" x2="56.2" y2="130.45"/>
      <line class="cls-4" x1="56.49" y1="134.85" x2="56.88" y2="139.47"/>
      <line class="cls-4" x1="56.97" y1="143.31" x2="56.56" y2="148.67"/>
      <line class="cls-4" x1="56.17" y1="152.15" x2="54.79" y2="156.57"/>
      <line class="cls-4" x1="54.54" y1="160.05" x2="53.04" y2="164.68"/>
      <line class="cls-4" x1="52.15" y1="168.33" x2="50.83" y2="172.57"/>
      <line class="cls-4" x1="49.78" y1="176.37" x2="47.61" y2="180.8"/>
      <line class="cls-4" x1="90.41" y1="126.77" x2="95.46" y2="126.92"/>
      <line class="cls-4" x1="100.55" y1="127.62" x2="105.44" y2="128.47"/>
      <line class="cls-4" x1="109.49" y1="129.31" x2="114.87" y2="130.36"/>
      <line class="cls-4" x1="118.84" y1="131.14" x2="123.24" y2="132.76"/>
      <line class="cls-4" x1="127.24" y1="133.16" x2="133.25" y2="134.71"/>
      <line class="cls-4" x1="136.45" y1="135.75" x2="141.59" y2="136.75"/>
      <line class="cls-4" x1="144.58" y1="138.86" x2="150.23" y2="140.83"/>
      <line class="cls-4" x1="52.78" y1="101.88" x2="58.27" y2="101.68"/>
      <line class="cls-4" x1="62.63" y1="101.94" x2="67.37" y2="102.07"/>
      <line class="cls-4" x1="70.66" y1="102.23" x2="75.59" y2="102.5"/>
      <line class="cls-4" x1="78.57" y1="102.19" x2="83.05" y2="102.19"/>
      <line class="cls-4" x1="85.92" y1="102.55" x2="90.75" y2="103"/>
      <line class="cls-4" x1="93.7" y1="103.82" x2="99.44" y2="104.5"/>
      <line class="cls-4" x1="102.33" y1="105.28" x2="108.38" y2="105.85"/>
      <line class="cls-4" x1="112.2" y1="106.3" x2="117.8" y2="107.2"/>
      <line class="cls-4" x1="120.81" y1="107.88" x2="126.23" y2="108.45"/>
      <line class="cls-4" x1="130.2" y1="109.47" x2="135.42" y2="109.75"/>
      <line class="cls-4" x1="139.51" y1="109.96" x2="144.56" y2="110.28"/>
      <line class="cls-4" x1="149.19" y1="111.52" x2="153.87" y2="113.05"/>
      <line class="cls-4" x1="53.29" y1="40.21" x2="56.86" y2="40.24"/>
      <line class="cls-4" x1="59.15" y1="40.02" x2="62.69" y2="40.24"/>
      <line class="cls-4" x1="65.16" y1="39.58" x2="68.94" y2="39.46"/>
      <line class="cls-4" x1="71.37" y1="39.56" x2="75.08" y2="39.9"/>
      <line class="cls-4" x1="77.4" y1="39.98" x2="80.58" y2="40.22"/>
      <line class="cls-4" x1="89.46" y1="34.08" x2="93.6" y2="34.41"/>
      <line class="cls-4" x1="95.77" y1="33.31" x2="101.06" y2="33.69"/>
      <line class="cls-4" x1="103.87" y1="34.89" x2="108.3" y2="35.42"/>
      <line class="cls-4" x1="110.85" y1="35.92" x2="114.99" y2="35.93"/>
      <line class="cls-4" x1="120.26" y1="42.08" x2="124.82" y2="42.03"/>
      <line class="cls-4" x1="126.7" y1="42.4" x2="131.62" y2="43.36"/>
      <line class="cls-4" x1="134.55" y1="44.18" x2="138.08" y2="45.75"/>
      <line class="cls-4" x1="140.27" y1="46.73" x2="143.59" y2="48.81"/>
      <line class="cls-4" x1="149.62" y1="59.34" x2="153.77" y2="60.95"/>
      <line class="cls-4" x1="155.75" y1="61.52" x2="160.2" y2="62.96"/>
      <line class="cls-4" x1="162.92" y1="64.16" x2="167.24" y2="66.61"/>
      <line class="cls-4" x1="169.25" y1="67.95" x2="172.88" y2="70.37"/>
    </g>
  </g>
  <text class="cls-2" transform="translate(213.34 247.9)"><tspan x="0" y="0">Fouraging</tspan></text>
</svg>