<?xml version="1.0" encoding="UTF-8"?>
<svg id="Layer_1" data-name="Layer 1" xmlns="http://www.w3.org/2000/svg" viewBox="0 0 1036.66 265.75">
  <defs>
    <style>
      .cls-1 {
        opacity: .1;
      }

      .cls-2 {
        fill: #603913;
        font-family: Merriweather-Bold, Merriweather;
        font-size: 140px;
        font-weight: 700;
        letter-spacing: .01em;
      }

      .cls-3 {
        stroke: #58595b;
        stroke-width: 2px;
      }

      .cls-3, .cls-4 {
        fill: none;
        stroke-miterlimit: 10;
      }

      .cls-4 {
        stroke: #006838;
      }

      .cls-5 {
        fill: #6d6e71;
      }

      .cls-5, .cls-6, .cls-7, .cls-8, .cls-9, .cls-10 {
        stroke-width: 0px;
      }

      .cls-6 {
        fill: #808285;
      }

      .cls-7 {
        fill: #b4d670;
      }

      .cls-8 {
        fill: #939598;
      }

      .cls-9 {
        fill: #ecf4dd;
      }

      .cls-10 {
        fill: #006838;
      }
    </style>
  </defs>
  <g>
    <g>
      <path class="cls-7" d="M115.32,235.1c4.96.3,9.56-3.49,18.76-11.08,7.78-6.42,8.09-8.52,12.73-9.97,6.95-2.17,10.78,1.14,15.34-1.87,3.89-2.57,3.4-6.48,5.68-11.1,3.8-7.68,11.97-10.57,25.61-15.39,16.69-5.9,22.49-3.85,36.5-11.21,4.37-2.3,4.3-2.76,10.05-6.24,28.03-16.97,43.37-14.31,47.23-24.75,3.32-8.97-4.01-21.75-10.61-22.82-2.2-.36-4.54.92-9.22,3.49-8.19,4.49-10.51,8.5-15.59,8.24-1.68-.09-4.3-.67-4.74-2.11-.54-1.75,2.28-4.19,7.21-7.51,13.93-9.37,18.83-8.29,21.49-12.98,4.57-8.08-3.35-22.92-9.69-23.31-3.89-.24-11.19,4.71-11.5,4.93-.28.2-.48.34-.71.5-8.24,5.93-10.8,11.16-17.44,14.64-3.16,1.66-7.62,3.11-8.33,2.09-.99-1.42,5.39-7.4,9.43-10.77,11.44-9.52,17.23-8.84,18.66-13.8,2.3-7.95-9.61-19.99-15.6-18.57-1.28.3-1.51,1.04-5.45,4.27-3.13,2.57-4.29,3.18-7.74,5.71-10.69,7.85-13.14,12.01-15.96,10.98-1.58-.57-2.58-2.52-2.48-4.01.15-2.24,2.82-3.69,4.5-4.69,2.73-1.62,11.7-6.97,13.13-11.8,1.97-6.67-8.62-18.61-17.43-17.6-3.67.42-6.27,3.01-11.39,8.1-4.52,4.5-7.08,8.3-8.51,10.28-4.41,6.11-9.58,10.2-19.9,18.38-15.01,11.89-15.75,9.06-25.51,18.12-3.59,3.33-10.94,10.61-16.25,15.99-6.09,6.16-8.05,8.36-12.26,9.95-5.7,2.15-8.24.44-13.42,3.63-3.51,2.16-4.39,4.2-8.22,5.27-3.28.91-4.63-.02-7.46.25-8.5.81-13.83,10.89-14.08,11.37-4.3,8.4-1.42,16.91-.21,20.46,1.75,5.17,5.6,9.96,13.3,19.55,6.84,8.52,8.4,9.28,10.29,13.74,3.12,7.37.62,9.46,3.37,16.25,2.39,5.9,8.56,14.88,16.42,15.36Z"/>
      <g class="cls-1">
        <path class="cls-10" d="M211.46,50.91c-5.54,9.38-14.02,16.56-21.94,23.86-8.9,8.21-17.79,16.42-26.69,24.64s-17.32,15.56-26.73,22.5-18.7,13.43-28.56,19.31c-10.98,6.54-22.68,11.69-34.93,15.31-3.08.91-1.77,5.74,1.33,4.82,11.12-3.29,21.9-7.79,32.02-13.45s19.93-12.47,29.43-19.32,18.71-14.36,27.42-22.36c9.12-8.38,18.21-16.81,27.31-25.21,9.17-8.46,19.23-16.7,25.64-27.58,1.64-2.78-2.68-5.3-4.32-2.52h0Z"/>
      </g>
      <g class="cls-1">
        <path class="cls-10" d="M220.27,58.6c-16.69,17.41-33.16,35.07-50.34,52.01-4.22,4.16-8.47,8.32-12.89,12.27s-8.85,7.19-13.69,10.26c-10.17,6.44-20.67,12.4-31.02,18.55-5.92,3.52-11.84,7.04-17.76,10.56-5.78,3.44-11.54,6.92-17.51,10.02-2.86,1.48-.33,5.8,2.52,4.32,10.81-5.62,21.16-12.19,31.63-18.42,10.44-6.21,20.93-12.33,31.31-18.64,5.02-3.05,9.91-6.3,14.46-10.03s8.91-7.96,13.19-12.12c8.6-8.36,16.94-16.97,25.24-25.62,9.47-9.87,18.93-19.75,28.39-29.62,2.23-2.32-1.3-5.86-3.54-3.54h0Z"/>
      </g>
      <g class="cls-1">
        <path class="cls-10" d="M245.74,70.94c-11.08,5.72-21.56,12.52-31.34,20.26-4.89,3.87-9.58,7.99-14.07,12.32-4.76,4.58-9.37,9.32-14.39,13.62-9.74,8.34-20.41,15.7-30.92,23.03-10.69,7.46-21.57,14.66-32.66,21.52-12.43,7.68-25.12,14.92-38.09,21.64-2.86,1.48-.33,5.8,2.52,4.32,23.18-11.99,45.44-25.69,66.93-40.5,10.66-7.34,21.29-14.83,31.42-22.89,10.15-8.09,18.75-17.85,28.69-26.18,10.58-8.86,22.17-16.49,34.43-22.82,2.86-1.48.33-5.79-2.52-4.32h0Z"/>
      </g>
      <g class="cls-1">
        <path class="cls-10" d="M251.41,79.26c-4.5,4.01-10.23,6.23-15.36,9.28-5.5,3.27-10.16,7.67-14.68,12.15-9.37,9.28-18.86,18.46-29.07,26.83-5.03,4.12-10.25,8.02-15.66,11.63s-10.99,7.07-16.07,11.19c-2.46,2-4.71,4.22-7.07,6.34s-5.09,3.95-7.97,5.53-5.59,3.05-8.22,4.87-5.15,3.82-7.66,5.81c-2.69,2.13-5.38,4.27-8.25,6.16s-6.02,3.52-9.22,4.94c-6.5,2.89-13.3,5.19-19.3,9.1-2.69,1.75-.18,6.08,2.52,4.32,5.38-3.5,11.42-5.72,17.29-8.23,5.84-2.49,11.15-5.53,16.19-9.39s9.74-7.97,15.21-11.1c2.86-1.64,5.86-3.05,8.56-4.95s5.11-4.2,7.53-6.45c4.78-4.43,10.14-8.02,15.57-11.59,5.53-3.63,10.93-7.42,16.14-11.5,10.4-8.15,20.05-17.22,29.47-26.48,5.05-4.96,9.94-10.28,15.96-14.1s12.39-6.17,17.62-10.82c2.41-2.14-1.14-5.67-3.54-3.54h0Z"/>
      </g>
      <g class="cls-1">
        <path class="cls-10" d="M267.91,91.43c-22.6,12.9-43.99,27.76-65.08,42.96-5.26,3.79-10.51,7.6-15.76,11.42-5.3,3.86-10.35,7.94-15.35,12.17s-10.13,7.67-15.64,10.96c-5.83,3.49-11.68,6.95-17.52,10.42-13.25,7.88-26.5,15.75-39.75,23.63-2.76,1.64-.25,5.97,2.52,4.32,11.75-6.98,23.49-13.96,35.24-20.94,5.95-3.53,11.89-7.07,17.84-10.6s11.34-6.67,16.55-10.72,9.68-8.24,14.77-12.05,10.52-7.69,15.79-11.5c10.5-7.6,21.05-15.13,31.77-22.4,12.11-8.21,24.44-16.08,37.15-23.34,2.79-1.6.28-5.92-2.52-4.32h0Z"/>
      </g>
      <g class="cls-1">
        <path class="cls-10" d="M273.07,101.29c-24,9.5-43.27,26.89-63.05,42.93-10.25,8.32-20.84,15.97-32.2,22.7-6.32,3.74-12.71,7.38-18.78,11.54s-11.7,8.69-17.43,13.18c-12.05,9.45-24.89,18.8-40.23,21.77-1.33.26-2.08,1.85-1.75,3.08.38,1.39,1.75,2,3.08,1.75,13.67-2.65,25.66-10.23,36.59-18.53,5.82-4.42,11.46-9.07,17.33-13.41s12.13-8.23,18.46-11.96,12.29-7.2,18.18-11.21c5.33-3.63,10.47-7.54,15.53-11.54,9.89-7.83,19.4-16.12,29.41-23.8,11.17-8.57,23.06-16.47,36.2-21.67,1.25-.5,2.13-1.67,1.75-3.08-.33-1.19-1.81-2.25-3.08-1.75h0Z"/>
      </g>
      <g class="cls-1">
        <path class="cls-10" d="M281.53,129.07c-10.52,6.69-22.11,11.35-33.56,16.16-12.01,5.04-23.69,10.67-35.08,17-11.53,6.41-22.76,13.33-33.95,20.31s-22.87,14.39-34.19,21.78c-6.34,4.13-12.65,8.31-18.92,12.54-3,2.02-5.94,4.15-9.02,6.06-2.84,1.76-5.81,3.18-9.23,2.72-1.34-.18-2.5,1.28-2.5,2.5,0,1.5,1.16,2.32,2.5,2.5,6.48.86,12.1-3.59,17.13-7,5.66-3.83,11.34-7.63,17.05-11.38,11.42-7.52,22.94-14.89,34.52-22.15,22.44-14.07,45.03-28.06,69.43-38.53,13-5.57,26.35-10.56,38.33-18.19,2.71-1.72.2-6.05-2.52-4.32h0Z"/>
      </g>
      <path class="cls-9" d="M284.32,147.81c-4.22-8.69-8.45-17.38-12.67-26.07,2.26-2.37,5.65-5.19,10.38-7.12,3.14-1.28,8.99-3.67,15.43-1.6,1.65.53,5.71,1.84,7.85,5.56,2.83,4.9.4,10.64-.67,13.16-4.69,11.1-17.24,15.15-20.31,16.06Z"/>
      <path class="cls-9" d="M273.97,111.94c-3.93-7.63-9.01-16.54-12.94-24.16,2.43-2.58,7.34-5.8,13.49-8.42,7.19-3.06,13.28-3.01,14.98-2.96,4.14.12,6.74.2,8.84,1.94,4.43,3.68,3.26,12,1.62,16.37-5.1,13.6-24.46,17.05-25.99,17.23Z"/>
      <path class="cls-9" d="M253.74,87.34c-1.54-3.52-4.24-8.31-9.15-12.39-4.31-3.58-7.69-4.44-7.83-6.93-.05-.95.31-3.08,11.34-8.92,9.79-5.19,14.79-7.77,19.71-6.98,4.69.75,10.94,3.85,12,8.8,1.04,4.85-3.4,9.24-8.62,14.41-3.48,3.44-9.1,8.13-17.45,12.01Z"/>
      <path class="cls-9" d="M225.16,68.71c-2.01-2.24-5.37-5.7-10.13-9.23-6.4-4.75-9.97-5.67-10.14-8.32-.25-3.86,7-7.18,12.75-9.81,8.13-3.72,16.18-7.4,21.06-3.79,4.27,3.16,3.67,10.1,3.56,11.41-1.09,12.61-15.84,19.2-17.1,19.74Z"/>
      <path class="cls-9" d="M183.79,90.14c-1.06-2.1-4.23-8.65-8.74-8.76-2.28-.05-3.97,1.56-5.17,2.65-11.57,10.43-21.5,10.53-21.71,16.04-.12,3.18,3.11,5.5,5.95,7.81,9.16,7.41,14.99,18.03,22.93,26.67,7.27,7.91,16.5,22.39,23.96,51.21,7.01.4,27.76,1.06,31.39-7.73,1.3-3.14-.04-6.39-.81-8.19-17.34-40.56-38.99-62.32-47.8-79.72Z"/>
      <path class="cls-9" d="M157.86,212.37c-1.69-2.67,9.79-14.58,20.57-21.98,23.9-16.39,51.49-19.57,53.9-14.67.73,1.48-.97,3.41.38,5.46,1.57,2.38,5.36,2.02,8.37,2.39,9.17,1.15,17.9,10.07,19.78,18.91.29,1.38,1.63,7.65-2.07,13.14-5.34,7.93-16.65,7.52-18.32,7.46-9.12-.33-15.81-5.77-16.24-6.14-3.96-3.31-5.26-6.64-10.6-8.78-1.99-.8-3.54-1.03-6.51-1.46-7.86-1.12-14.06-.73-14.93-.67-17.39,1.2-32.58,9.1-34.33,6.34Z"/>
      <path class="cls-9" d="M120.24,125.97c3.46,2.82,8.45,7.46,12.85,14.26,2.77,4.27,3.14,6.06,9.03,20.11,7.13,17,7.16,15.74,9.46,22.39,3.88,11.2,2.93,12.26,6.26,18.26,2.93,5.29,5.81,8.34,4.51,10.51-1.25,2.09-6.49,2.06-9.23,1.78-1.72-.18.28-3.62-.49-6.91-.59-2.54-1.26-3.68-3.15-7.77-2.57-5.57-4.77-11.29-7.21-16.91-4.23-9.75-6.35-14.63-6.77-15.54-5.4-11.93-8.1-17.89-10.42-21.04-6.92-9.44-14.07-12.75-12.83-16.08.78-2.09,4.37-2.83,7.98-3.06Z"/>
      <line class="cls-4" x1="206.99" y1="50.16" x2="210.03" y2="52.12"/>
      <line class="cls-4" x1="211.7" y1="53.59" x2="214.54" y2="55.66"/>
      <line class="cls-4" x1="215.82" y1="57.26" x2="218.79" y2="59.4"/>
      <line class="cls-4" x1="220.73" y1="60.35" x2="223.41" y2="63.08"/>
      <line class="cls-4" x1="224.64" y1="65.01" x2="226.99" y2="67.84"/>
      <line class="cls-4" x1="238.25" y1="66.37" x2="240.39" y2="68.2"/>
      <line class="cls-4" x1="241.61" y1="69.4" x2="244.87" y2="71.63"/>
      <line class="cls-4" x1="246.08" y1="73.09" x2="248.98" y2="75.81"/>
      <line class="cls-4" x1="249.98" y1="77.21" x2="252.56" y2="80.51"/>
      <line class="cls-4" x1="253.51" y1="82.51" x2="255.36" y2="85.96"/>
      <line class="cls-4" x1="263.18" y1="86.77" x2="265.08" y2="90"/>
      <line class="cls-4" x1="265.57" y1="91.77" x2="267.68" y2="95.25"/>
      <line class="cls-4" x1="268.52" y1="97.67" x2="270.63" y2="101.11"/>
      <line class="cls-4" x1="271.94" y1="102.53" x2="273.7" y2="106.36"/>
      <line class="cls-4" x1="274.55" y1="107.68" x2="276.35" y2="111.06"/>
      <line class="cls-4" x1="273.78" y1="120.89" x2="275.68" y2="124.63"/>
      <line class="cls-4" x1="276.02" y1="126.39" x2="278.07" y2="130.38"/>
      <line class="cls-4" x1="278.92" y1="131.69" x2="280.51" y2="135.32"/>
      <line class="cls-4" x1="281.46" y1="137.24" x2="283.52" y2="141.03"/>
      <line class="cls-4" x1="284.37" y1="142.49" x2="286.27" y2="145.98"/>
      <line class="cls-4" x1="175.38" y1="83.46" x2="178.31" y2="86.96"/>
      <line class="cls-4" x1="179.52" y1="88.68" x2="182.04" y2="92.34"/>
      <line class="cls-4" x1="183.29" y1="94.74" x2="185.55" y2="98.38"/>
      <line class="cls-4" x1="186.86" y1="100.36" x2="189.84" y2="104.61"/>
      <line class="cls-4" x1="191.44" y1="107.29" x2="194.52" y2="111.69"/>
      <line class="cls-4" x1="196.18" y1="114.57" x2="199.66" y2="119.28"/>
      <line class="cls-4" x1="201.78" y1="121.67" x2="204.8" y2="126.52"/>
      <line class="cls-4" x1="206.56" y1="129.3" x2="209.72" y2="134.66"/>
      <line class="cls-4" x1="211.18" y1="136.68" x2="214.01" y2="140.73"/>
      <line class="cls-4" x1="215.91" y1="144.52" x2="218.56" y2="149.16"/>
      <line class="cls-4" x1="219.66" y1="151.78" x2="222.11" y2="156.18"/>
      <line class="cls-4" x1="223.46" y1="159" x2="225.41" y2="162.69"/>
      <line class="cls-4" x1="226.55" y1="166.01" x2="229.25" y2="171.26"/>
      <line class="cls-4" x1="150.45" y1="99.83" x2="153.75" y2="103.79"/>
      <line class="cls-4" x1="156.39" y1="106.33" x2="160.15" y2="109.89"/>
      <line class="cls-4" x1="162.28" y1="111.83" x2="165.62" y2="115.79"/>
      <line class="cls-4" x1="167.7" y1="117.97" x2="170.93" y2="121.92"/>
      <line class="cls-4" x1="172.95" y1="124.81" x2="175.78" y2="128.36"/>
      <line class="cls-4" x1="177.8" y1="131.09" x2="181.19" y2="135.15"/>
      <line class="cls-4" x1="183.56" y1="138.29" x2="186.59" y2="142.44"/>
      <line class="cls-4" x1="188.5" y1="145.48" x2="190.86" y2="149.46"/>
      <line class="cls-4" x1="191.75" y1="151.84" x2="194.16" y2="155.98"/>
      <line class="cls-4" x1="195.19" y1="158.95" x2="197.29" y2="163.34"/>
      <line class="cls-4" x1="198.17" y1="166.46" x2="199.95" y2="171.04"/>
      <line class="cls-4" x1="200.94" y1="174.21" x2="202.17" y2="178.33"/>
      <line class="cls-4" x1="117.36" y1="129.49" x2="119.18" y2="131.44"/>
      <line class="cls-4" x1="120.68" y1="133.1" x2="122.65" y2="135.34"/>
      <line class="cls-4" x1="124.36" y1="137.16" x2="126.27" y2="139.88"/>
      <line class="cls-4" x1="127.7" y1="142.07" x2="129.77" y2="145.16"/>
      <line class="cls-4" x1="130.72" y1="147.5" x2="132.62" y2="150.7"/>
      <line class="cls-4" x1="133.56" y1="153.51" x2="135.55" y2="157.76"/>
      <line class="cls-4" x1="136.77" y1="159.85" x2="138.61" y2="163.67"/>
      <line class="cls-4" x1="139.56" y1="165.48" x2="141.24" y2="169.09"/>
      <line class="cls-4" x1="142.08" y1="171.11" x2="143.75" y2="175.37"/>
      <line class="cls-4" x1="145.02" y1="177.6" x2="146.53" y2="182.06"/>
      <line class="cls-4" x1="147.95" y1="185.12" x2="149.35" y2="189.12"/>
      <line class="cls-4" x1="150.24" y1="191.67" x2="152.29" y2="195.71"/>
      <line class="cls-4" x1="153.06" y1="198.94" x2="154.89" y2="203.25"/>
      <line class="cls-4" x1="155.84" y1="205.38" x2="157.74" y2="209.05"/>
      <line class="cls-4" x1="230.78" y1="177.19" x2="227.46" y2="176.64"/>
      <line class="cls-4" x1="223.66" y1="176.84" x2="219.64" y2="177.22"/>
      <line class="cls-4" x1="215.69" y1="177.96" x2="211.7" y2="179.09"/>
      <line class="cls-4" x1="207.91" y1="179.91" x2="203" y2="181.42"/>
      <line class="cls-4" x1="198.84" y1="183.08" x2="194.45" y2="184.73"/>
      <line class="cls-4" x1="190.89" y1="186.33" x2="186.16" y2="189.04"/>
      <line class="cls-4" x1="183.15" y1="190.92" x2="179.7" y2="194.1"/>
      <line class="cls-4" x1="176.62" y1="195.85" x2="173.03" y2="199.24"/>
      <line class="cls-4" x1="170.07" y1="201.64" x2="166.77" y2="204.7"/>
      <line class="cls-4" x1="163.74" y1="207.31" x2="160.62" y2="211.22"/>
    </g>
    <g>
      <path class="cls-7" d="M66.75,235.98c-3.1-3.79-2.53-9.63-1.4-21.31.96-9.88,2.55-11.33,1.12-15.86-2.15-6.79-7.13-7.95-7.2-13.32-.06-4.58,3.52-6.42,6.1-10.88,4.3-7.43,2.06-15.6-1.68-29.25-4.58-16.69-9.63-20.15-11.44-35.54-.57-4.81-.14-5.01-.49-11.6-1.74-32.08-12.76-42.8-6.18-51.85,5.66-7.78,20.62-9.25,25.3-4.6,1.56,1.55,1.82,4.15,2.34,9.35.91,9.1-1.15,13.25,1.97,17.16,1.03,1.29,3.02,3.05,4.5,2.58,1.78-.57,2.23-4.22,2.2-10.05-.08-16.48-3.8-19.77-1.36-24.58,4.19-8.27,21.23-10.44,25.19-5.61,2.43,2.97,2.43,11.62,2.43,12,0,.34,0,.58-.02.85-.28,9.97-3.23,15.01-2.36,22.29.41,3.47,1.74,7.86,3,7.85,1.76-.02,3.16-8.53,3.68-13.68,1.47-14.58-2.41-18.81.95-22.79,5.38-6.39,22.35-3.78,24.57,1.82.48,1.19,0,1.8-.48,6.8-.37,3.97-.22,5.25-.38,9.44-.5,13.02-2.6,17.36-.12,19.02,1.39.93,3.6.62,4.79-.32,1.8-1.41,1.5-4.36,1.38-6.28-.19-3.11-.83-13.33,2.43-17.23,4.5-5.39,20.62-3.78,24.8,3.84,1.74,3.17,1.05,6.72-.31,13.73-1.2,6.18-2.94,10.4-3.79,12.68-2.63,7.02-3.12,13.48-4.1,26.4-1.43,18.78,1.37,17.75-.66,30.73-.75,4.77-2.68,14.8-4.18,22.12-1.71,8.38-2.44,11.21-1.37,15.48,1.45,5.78,4.34,6.83,4.62,12.78.19,4.03-1.03,5.9.26,9.58,1.11,3.14,2.67,3.68,4.06,6.1,4.18,7.25-1.26,17.27-1.53,17.74-4.61,8.24-13.44,10.81-17.12,11.88-5.36,1.56-11.6,1.23-24.09.58-11.09-.58-12.63-1.39-17.47-.34-7.99,1.73-8.33,4.92-15.62,6.61-6.34,1.47-17.44,1.68-22.34-4.31Z"/>
      <g class="cls-1">
        <path class="cls-10" d="M162.49,51.59c-4.81,9.94-6.23,20.9-7.9,31.68-1.81,11.69-3.63,23.39-5.44,35.08s-3.35,23.15-3.88,34.89-.71,23.6,0,35.34c.79,12.93,3.2,25.72,7.31,38.02,1.01,3.04,5.85,1.73,4.82-1.33-3.54-10.61-5.89-21.61-6.85-32.75-.98-11.47-.82-23.07-.47-34.57.36-11.55,1.51-22.96,3.27-34.37s3.55-22.87,5.32-34.31,2.87-24.3,8.12-35.15c.59-1.21.33-2.7-.9-3.42-1.1-.64-2.83-.32-3.42.9h0Z"/>
      </g>
      <g class="cls-1">
        <path class="cls-10" d="M150.51,50.16c-5.1,23.17-10.52,46.3-14.96,69.61-2.21,11.59-4.32,23.16-3.98,35s1.38,23.92,2.13,35.87c.41,6.63.83,13.25,1.24,19.88s.79,13.53,1.61,20.26c.16,1.34,1.03,2.5,2.5,2.5,1.22,0,2.67-1.15,2.5-2.5-1.45-11.82-1.83-23.79-2.57-35.67s-1.59-23.79-2.21-35.69c-.3-5.77-.39-11.54.19-17.3s1.64-11.45,2.69-17.13c2.13-11.61,4.62-23.16,7.15-34.69,2.84-12.94,5.69-25.88,8.54-38.82.69-3.14-4.13-4.48-4.82-1.33h0Z"/>
      </g>
      <g class="cls-1">
        <path class="cls-10" d="M125.4,38.2c1.56,12.42,1.83,24.99.78,37.46-.53,6.27-1.44,12.48-2.59,18.66s-2.32,12.27-2.99,18.48c-1.35,12.47-1.48,25.14-1.64,37.68-.17,12.68,0,25.37.56,38.05.64,14.32,1.8,28.61,3.57,42.83.17,1.34,1.03,2.5,2.5,2.5,1.22,0,2.67-1.15,2.5-2.5-3.14-25.18-4.34-50.57-4.18-75.93.08-12.59.28-25.24,1.25-37.8s4.16-24.66,5.54-37.11c1.57-14.06,1.45-28.28-.31-42.31-.17-1.34-1.03-2.5-2.5-2.5-1.22,0-2.67,1.15-2.5,2.5h0Z"/>
      </g>
      <g class="cls-1">
        <path class="cls-10" d="M115.28,37.14c-.87,6.42.47,12.63.86,19.03s-.82,12.52-2,18.7c-2.42,12.58-4.62,25.23-5.8,38-.59,6.38-.9,12.79-.86,19.2s.37,12.76-.21,19.11c-.28,3.12-.9,6.18-1.31,9.28s-.46,6.27-.15,9.46.67,6.39.65,9.62-.27,6.3-.51,9.44c-.27,3.54-.54,7.09-.47,10.65s.53,6.97,1.17,10.41c1.25,6.66,3.17,13.22,3.31,20.04.07,3.21,5.07,3.22,5,0-.12-6.09-1.55-12.03-2.8-17.96-.62-2.94-1.22-5.9-1.49-8.9s-.23-6.26-.06-9.39c.35-6.29,1.18-12.57.69-18.88-.24-3.11-.74-6.21-.74-9.34s.6-6.28,1.08-9.41c.98-6.38,1.02-12.78.91-19.22s-.06-12.68.38-19.02c.86-12.59,2.89-25.06,5.21-37.45,1.31-7,3-14.06,3.08-21.22s-2.05-13.9-1.11-20.82c.18-1.34-.32-2.68-1.75-3.08-1.16-.32-2.89.4-3.08,1.75h0Z"/>
      </g>
      <g class="cls-1">
        <path class="cls-10" d="M95.45,32.23c2.09,25.83,1.77,51.77,1.01,77.64-.19,6.43-.39,12.86-.62,19.28s-.93,12.67-1.56,19.01-.44,12.98-.03,19.51.82,13.08,1.23,19.62c.92,14.57,1.83,29.15,2.75,43.72.2,3.2,5.2,3.22,5,0-.82-13.08-1.64-26.17-2.46-39.25-.41-6.46-.81-12.92-1.22-19.38s-.98-12.92-.65-19.38,1.38-12.6,1.73-18.94.49-12.84.69-19.25c.41-13.03.74-26.06.74-39.1,0-14.51-.42-29.03-1.6-43.49-.11-1.35-1.07-2.5-2.5-2.5-1.27,0-2.61,1.15-2.5,2.5h0Z"/>
      </g>
      <g class="cls-1">
        <path class="cls-10" d="M84.41,35.04c5.99,25.71,1.32,52.21-.7,78.09-.51,6.6-.87,13.22-.86,19.85s.52,13.74.97,20.61.75,13.5.5,20.26-.89,13.74-1.31,20.61c-.88,14.34-.56,29.03,5.43,42.34.55,1.23,2.34,1.53,3.42.9,1.27-.74,1.45-2.18.9-3.42-5.11-11.36-5.52-24.14-4.93-36.38.33-6.88.98-13.73,1.34-20.61s.27-13.49-.13-20.24-1.01-13.84-1.16-20.77c-.13-6.54.12-13.08.57-19.6.89-13.09,2.55-26.12,3.38-39.21.93-14.63.74-29.41-2.6-43.76-.73-3.13-5.55-1.81-4.82,1.33h0Z"/>
      </g>
      <g class="cls-1">
        <path class="cls-10" d="M55.94,42.91c.41,13.02,3.39,25.75,6.04,38.45s4.49,25.72,5.6,38.75,1.66,26.24,2.17,39.38.91,26.75,1.13,40.13c.12,7.48.19,14.96.2,22.44,0,6.17-.38,13.07,4.2,17.88,2.22,2.33,5.76-1.21,3.54-3.54-3.47-3.64-2.73-9.74-2.74-14.35,0-6.65-.06-13.3-.16-19.95-.19-13.13-.56-26.26-1.05-39.39-.97-26.01-2.02-52.16-7.06-77.76-2.75-13.94-6.42-27.78-6.87-42.05-.1-3.21-5.1-3.22-5,0h0Z"/>
      </g>
      <path class="cls-9" d="M43.59,51.18c9.74-1.6,19.48-3.2,29.22-4.81.7-3.16,1.14-7.48.06-12.35-.72-3.24-2.05-9.28-7.49-13.22-1.39-1.01-4.82-3.5-9.18-3.08-5.75.55-9.2,5.77-10.71,8.06-6.67,10.1-2.9,22.43-1.91,25.4Z"/>
      <path class="cls-9" d="M79.74,38.91c8.68-1.23,19.09-2.28,27.77-3.51.78-3.41.69-9.17-.62-15.58-1.53-7.49-5.06-12.32-6.08-13.65-2.47-3.23-4.03-5.26-6.7-5.94-5.64-1.43-11.98,4.27-14.73,8.08-8.54,11.85-.37,29.27.35,30.6Z"/>
      <path class="cls-9" d="M112.05,40.97c3.84-.78,9.43-1.37,15.68.21,5.48,1.39,8.14,3.6,10.32,2.28.83-.5,2.41-2.01,1.03-14.15-1.23-10.78-1.91-16.25-5.39-19.73-3.31-3.31-9.51-6.53-14.29-4.54-4.68,1.95-5.85,8-7.21,15.13-.91,4.75-1.65,11.91-.14,20.8Z"/>
      <path class="cls-9" d="M144.1,53.11c3.04.32,7.87,1.03,13.57,2.8,7.67,2.39,10.49,4.71,12.82,3.33,3.4-2.01,2.04-9.69.97-15.79-1.52-8.62-3.02-17.15-8.86-18.97-5.11-1.6-10.61,2.85-11.65,3.69-10.01,8.08-7.11,23.62-6.85,24.94Z"/>
      <path class="cls-9" d="M149.72,98.39c2.38-.35,9.71-1.58,12.38,1.96,1.35,1.79.95,4.06.73,5.65-2.17,15.2,3.43,23.18-1.09,26.51-2.61,1.92-6.42.67-9.98-.28-11.49-3.07-23.78-1.64-35.6-3.04-10.83-1.27-28.31-.35-56.87,10.19-4.35-5.36-16.78-21.55-11.46-29.47,1.9-2.83,5.41-3.63,7.36-4.04,44.11-9.38,74.83-4.55,94.54-7.48Z"/>
      <path class="cls-9" d="M61.56,189.03c3.22-.18,6.69-16.16,6.75-28.99.14-28.46-12.97-52.29-18.49-51.41-1.66.27-2.32,2.72-4.82,2.82-2.91.11-4.77-3.12-6.8-5.31-6.22-6.66-18.73-8.52-27.26-4.97-1.33.55-7.38,3.08-9.89,9.17-3.63,8.79,3.19,17.59,4.2,18.88,5.5,7.09,13.91,9.31,14.47,9.45,5.06,1.26,8.6.4,13.47,3.43,1.81,1.13,2.89,2.23,4.95,4.36,5.44,5.63,8.66,10.8,9.11,11.53,8.94,14.57,10.97,31.21,14.31,31.02Z"/>
      <path class="cls-9" d="M155.9,169.6c-4.35-1.15-11.13-2.47-19.38-2.09-5.19.24-6.91.97-22.12,4.31-18.41,4.04-17.36,3.3-24.29,5.26-11.66,3.31-12.01,4.67-18.97,5.46-6.14.69-10.35.13-11.44,2.42-1.04,2.19,1.98,6.35,3.79,8.38,1.13,1.27,2.89-2.3,6.1-3.56,2.48-.98,3.82-1.1,8.35-1.93,6.16-1.14,12.24-2.65,18.38-3.92,10.64-2.2,15.96-3.3,16.97-3.49,13.14-2.51,19.71-3.77,23.7-3.73,11.92.12,18.8,3.93,20.89,1.03,1.31-1.82-.11-5.1-1.99-8.12Z"/>
      <line class="cls-4" x1="170.14" y1="56.99" x2="166.75" y2="55.69"/>
      <line class="cls-4" x1="164.55" y1="55.2" x2="161.18" y2="54.12"/>
      <line class="cls-4" x1="159.1" y1="54.02" x2="155.6" y2="52.87"/>
      <line class="cls-4" x1="153.69" y1="51.86" x2="149.85" y2="51.29"/>
      <line class="cls-4" x1="147.53" y1="51.41" x2="143.8" y2="51.16"/>
      <line class="cls-4" x1="138.59" y1="41.33" x2="135.82" y2="40.67"/>
      <line class="cls-4" x1="134.12" y1="40.38" x2="130.37" y2="39.06"/>
      <line class="cls-4" x1="128.44" y1="38.92" x2="124.49" y2="38.17"/>
      <line class="cls-4" x1="122.74" y1="38.17" x2="118.49" y2="38"/>
      <line class="cls-4" x1="116.25" y1="38.39" x2="112.29" y2="38.89"/>
      <line class="cls-4" x1="107.13" y1="33.12" x2="103.31" y2="33.44"/>
      <line class="cls-4" x1="101.55" y1="34.06" x2="97.4" y2="34.37"/>
      <line class="cls-4" x1="94.89" y1="35.09" x2="90.78" y2="35.37"/>
      <line class="cls-4" x1="88.84" y1="35.14" x2="84.6" y2="35.93"/>
      <line class="cls-4" x1="83" y1="36.01" x2="79.12" y2="36.5"/>
      <line class="cls-4" x1="72.3" y1="44.18" x2="68.07" y2="44.8"/>
      <line class="cls-4" x1="66.4" y1="45.54" x2="61.86" y2="46.19"/>
      <line class="cls-4" x1="60.26" y1="46.26" x2="56.3" y2="47.07"/>
      <line class="cls-4" x1="54.13" y1="47.41" x2="49.77" y2="47.94"/>
      <line class="cls-4" x1="48.04" y1="48.09" x2="44.02" y2="48.57"/>
      <line class="cls-4" x1="160.17" y1="101.28" x2="155.54" y2="100.94"/>
      <line class="cls-4" x1="153.4" y1="100.96" x2="148.87" y2="101.04"/>
      <line class="cls-4" x1="146.13" y1="101.42" x2="141.77" y2="101.7"/>
      <line class="cls-4" x1="139.36" y1="101.78" x2="134.07" y2="101.84"/>
      <line class="cls-4" x1="130.89" y1="102.09" x2="125.42" y2="102.16"/>
      <line class="cls-4" x1="122.05" y1="102.49" x2="116.09" y2="102.41"/>
      <line class="cls-4" x1="112.86" y1="102.07" x2="107.04" y2="102.45"/>
      <line class="cls-4" x1="103.69" y1="102.63" x2="97.37" y2="103.17"/>
      <line class="cls-4" x1="94.82" y1="103.17" x2="89.8" y2="103.23"/>
      <line class="cls-4" x1="85.52" y1="103.88" x2="80.08" y2="104.42"/>
      <line class="cls-4" x1="77.25" y1="105.05" x2="72.14" y2="105.6"/>
      <line class="cls-4" x1="68.99" y1="106.15" x2="64.76" y2="106.7"/>
      <line class="cls-4" x1="61.31" y1="107.69" x2="55.34" y2="108.54"/>
      <line class="cls-4" x1="160.64" y1="130.54" x2="155.41" y2="130.17"/>
      <line class="cls-4" x1="151.76" y1="129.52" x2="146.61" y2="128.56"/>
      <line class="cls-4" x1="143.76" y1="127.96" x2="138.51" y2="127.56"/>
      <line class="cls-4" x1="135.48" y1="127.16" x2="130.3" y2="126.84"/>
      <line class="cls-4" x1="126.71" y1="126.88" x2="122.1" y2="126.65"/>
      <line class="cls-4" x1="118.64" y1="126.61" x2="113.28" y2="126.23"/>
      <line class="cls-4" x1="109.28" y1="126.13" x2="104.05" y2="126.09"/>
      <line class="cls-4" x1="100.4" y1="126.3" x2="95.69" y2="126.7"/>
      <line class="cls-4" x1="93.18" y1="127.35" x2="88.31" y2="127.8"/>
      <line class="cls-4" x1="85.21" y1="128.67" x2="80.31" y2="129.51"/>
      <line class="cls-4" x1="77.18" y1="130.59" x2="72.29" y2="131.79"/>
      <line class="cls-4" x1="69.06" y1="132.83" x2="64.89" y2="134.2"/>
      <line class="cls-4" x1="154.59" y1="173.92" x2="151.9" y2="173.58"/>
      <line class="cls-4" x1="149.65" y1="173.34" x2="146.62" y2="173.05"/>
      <line class="cls-4" x1="144.11" y1="172.72" x2="140.72" y2="172.75"/>
      <line class="cls-4" x1="138.06" y1="172.86" x2="134.27" y2="172.98"/>
      <line class="cls-4" x1="131.76" y1="173.57" x2="127.98" y2="173.88"/>
      <line class="cls-4" x1="125.07" y1="174.74" x2="120.34" y2="175.58"/>
      <line class="cls-4" x1="117.89" y1="175.8" x2="113.62" y2="176.52"/>
      <line class="cls-4" x1="111.55" y1="176.8" x2="107.54" y2="177.52"/>
      <line class="cls-4" x1="105.36" y1="178.01" x2="100.82" y2="179.11"/>
      <line class="cls-4" x1="98.21" y1="179.38" x2="93.59" y2="180.73"/>
      <line class="cls-4" x1="90.19" y1="181.35" x2="86.02" y2="182.52"/>
      <line class="cls-4" x1="83.37" y1="183.27" x2="78.78" y2="183.94"/>
      <line class="cls-4" x1="75.62" y1="185.18" x2="70.94" y2="186.18"/>
      <line class="cls-4" x1="68.61" y1="186.64" x2="64.43" y2="187.23"/>
      <line class="cls-4" x1="49.47" y1="110.71" x2="51.83" y2="113.05"/>
      <line class="cls-4" x1="53.85" y1="116.2" x2="55.82" y2="119.62"/>
      <line class="cls-4" x1="57.46" y1="123.2" x2="58.79" y2="127.03"/>
      <line class="cls-4" x1="60.27" y1="130.52" x2="61.81" y2="135.3"/>
      <line class="cls-4" x1="62.79" y1="139.57" x2="63.91" y2="144.02"/>
      <line class="cls-4" x1="64.59" y1="147.77" x2="65.02" y2="153.1"/>
      <line class="cls-4" x1="65.17" y1="156.58" x2="64.46" y2="161.15"/>
      <line class="cls-4" x1="64.75" y1="164.61" x2="63.94" y2="169.41"/>
      <line class="cls-4" x1="63.61" y1="173.15" x2="62.93" y2="177.54"/>
      <line class="cls-4" x1="62.46" y1="181.45" x2="60.95" y2="186.18"/>
    </g>
  </g>
  <g>
    <path class="cls-3" d="M839.87,122.04c3.1,1.58,6.7.05,7.69-2.6,1.32-3.57-2.8-7.24-3.92-6.85-.78.27-1.03,2.85.1,4.11,1.53,1.7,5.61.97,7.31-1.3,2.49-3.32-.79-9.05-2.21-8.96-.98.06-2.12,2.96-1.16,4.5,1.08,1.73,4.77,1.71,6.56.11,3-2.67.6-9.67-.88-9.77-1-.07-2.51,2.97-1.69,4.08.9,1.22,5.08.68,6.96-1.78,2.36-3.09.51-8.42-.91-8.58-1.08-.13-2.79,2.63-2.11,4.01.76,1.53,4.62,1.61,7.16.13,3.97-2.33,5.2-8.83,3.19-10.65-1.18-1.07-3.86-.88-4.78.51-.91,1.37.08,3.64,1.46,4.67,2.06,1.54,5.56.74,7.18-1.06,3.45-3.83-.86-13.02-2.85-12.9-.96.06-1.95,2.3-1.39,3.78.91,2.39,6.05,3.31,7.79,1.5,2.3-2.39-1.28-9.67-2.98-9.51-.93.09-1.83,2.44-1.14,3.31.9,1.13,5.04.4,6.66-2.08,2.11-3.24-.57-8.66-2.33-8.73-1.18-.04-2.72,2.26-2.16,3.83.4,1.12,1.91,1.97,2.89,1.66,1.25-.4,2.3-2.87,1.78-11.39"/>
    <path class="cls-6" d="M831.56,136.31c-2.08-2.35-4.85-5.93-7.13-10.77-1.03-2.19-3.22-7.32-4.21-16.48-1.84-16.95,3.04-23.59-1.97-28.82-2.47-2.57-4.29-1.63-9.72-4.03-9.46-4.18-14.44-11.67-18.47-17.72-6.82-10.26-15.95-30.22-10.64-34.77,4.06-3.48,17.95.84,61.88,36.31,1.15,8.26,1.7,15.26,1.98,20.6.37,7.06.22,10.06-.94,13.53-2.31,6.94-5.51,6.38-6.24,10.85-1.49,9.14,11.23,15.66,8.33,23.63-.32.88-.74,1.52-.97,1.86-3.97,1.94-7.94,3.88-11.9,5.82Z"/>
    <path class="cls-8" d="M889.45,56.52c-2.78-1.91-6.05-3.42-9.82-3.95-4.82-.67-7.14.72-15.89,1.78-7.89.95-7.08-.04-11.48.85-3.09.63-11.03,2.25-16.92,8.26-4.42,4.51-2.94,6.66-8.19,12.14-.8.84-4.24,4.34-9.75,7.16-8.36,4.27-16.14,4.22-19.85,4.16-3.62-.06-14.53-.39-24.77-7.08-8.03-5.24-11.6-11.74-20.17-12.63-.98-.1-4.41-.46-5.12.92-.64,1.23,1.15,3.41,4.35,6.4,8.1,7.55,15.53,11.34,15.53,11.34,5.4,2.75,12.69,6.4,23.88,8.73,19.67,4.09,48.25,3.42,54.96-7.61,3.26-5.36,5.24-10.31,5.24-10.31,2.26-5.66,1.86-7.07,3.78-8.94,4.23-4.14,12.02-3.03,14.43-2.69,8.04,1.14,10.52,5.12,14.11,3.8,2.25-.83,4.7-3.65,5.67-12.32Z"/>
    <path class="cls-10" d="M879.81,54.55c.43-.66,1.32-1.78,2.71-2.1.59-.14,2.23-.36,5.39,2.34,3.2,2.73,3.53,4.69,5.57,7.06,2.83,3.29,6.48,4.51,9.21,5.42,5.66,1.89,9.77.82,15.9.31,2.77-.23,8.85.17,21.02.97,8.88.58,18.53,1.22,30.48,3.04,17.04,2.6,13.22,3.72,33.94,7.49,3.42.62,22.25,3.99,30.25,11.41.81.75,2.25,2.23,2.38,4.29.3,4.93-7.24,8.86-8.21,9.36-4.85,2.46-9.49,2.4-11.45,2.32-10.26-.4-17.74-3.93-27.99-8.34-15.47-6.66-23.35-10.02-29.94-11.25-5.78-1.08-11.22-1.35-22.09-1.89-12.82-.64-22.04-.9-22.04-.9-8.73-.25-11.76-.22-16.33-1.68-2.82-.9-8.02-2.58-12.28-6.97-7.45-7.69-6.76-18.3-6.52-20.84Z"/>
    <path class="cls-10" d="M829.68,136.88c1.17.28,3,.7,5.27,1.12,4.91.9,6.27.77,9.55,1.54,2.53.59,4.89,1.15,7.57,2.66,1,.57,4.49,2.65,7.3,6.77,2.8,4.12,1.99,5.95,4.17,10.01,2.34,4.36,5.56,6.49,8.41,8.68,1.3.99,6.88,6.91,18.04,18.75,10.63,11.28,15.95,16.91,19.44,21.58,9.07,12.12,13.6,18.17,16.1,24.13,1.27,3.04,3.81,9.72,10.16,13.42,3.29,1.92,5.38,1.74,6.43,1.51,4.08-.89,6.06-5.48,6.66-6.86.74-1.71,2.68-7.01-1.08-17.52-1.96-5.5-5.19-11.6-11.64-18.99-6.89-7.9-9.19-7.77-22.15-19.47-7.24-6.53-12.59-12.05-16.4-15.99-7.88-8.15-14.52-15.75-16.12-17.59-8.35-9.59-9.64-11.86-15.06-16.66-6.93-6.16-10.72-9.42-16.49-9.68-1-.04-5.72,1.47-15.17,4.49-1.67.53-3.91,1.29-4.92,3.3-.91,1.8-.42,3.76-.05,4.79Z"/>
    <path class="cls-5" d="M829.81,84.16c1.23,2.44,4.1,3.35,6.2,3.31,3.82-.08,8.34-3.39,7.92-7.73-.35-3.59-3.93-6.33-7.54-6.08-4.11.28-6.09,4.3-6.28,4.7-.34.72-1.56,3.3-.3,5.8Z"/>
  </g>
  <text class="cls-2" transform="translate(173.7 227.53)"><tspan x="0" y="0">Fouraging</tspan></text>
</svg>