<?xml version="1.0" encoding="UTF-8"?>
<svg xmlns="http://www.w3.org/2000/svg" viewBox="0 0 488.21 395.6">
  <g style="isolation: isolate;">
    <g id="Layer_2" data-name="Layer 2">
      <g id="Layer_1-2" data-name="Layer 1">
        <g id="Layer_4" data-name="Layer 4">
          <g>
            <path d="M248.11,395.1c-5.17,0-10.27-1.37-14.74-3.95l-145.33-83.91c-9.09-5.25-14.75-15.04-14.75-25.54V113.9c0-10.5,5.65-20.29,14.74-25.54L233.36,4.45c4.48-2.58,9.58-3.95,14.75-3.95s10.27,1.37,14.74,3.95l145.33,83.91c9.09,5.25,14.75,15.04,14.75,25.54v167.81c0,10.5-5.65,20.29-14.75,25.54l-145.33,83.91c-4.48,2.58-9.58,3.95-14.75,3.95Z" style="fill: #214827; stroke-width: 0px;"/>
            <path d="M248.11,1c5.08,0,10.09,1.34,14.49,3.88l145.33,83.91c8.94,5.16,14.49,14.78,14.49,25.11v167.81c0,10.32-5.55,19.94-14.49,25.11l-145.33,83.91c-4.4,2.54-9.41,3.88-14.49,3.88s-10.09-1.34-14.49-3.88l-145.33-83.91c-8.94-5.16-14.49-14.78-14.49-25.11V113.9c0-10.32,5.55-19.94,14.49-25.11L233.61,4.88c4.4-2.54,9.41-3.88,14.49-3.88M248.11,0c-5.18,0-10.36,1.34-14.99,4.02L87.78,87.92c-9.28,5.36-14.99,15.26-14.99,25.97v167.81c0,10.71,5.72,20.61,14.99,25.97l145.33,83.91c4.64,2.68,9.82,4.02,14.99,4.02s10.36-1.34,14.99-4.02l145.33-83.91c9.28-5.36,14.99-15.26,14.99-25.97V113.9c0-10.71-5.72-20.61-14.99-25.97L263.1,4.02C258.46,1.34,253.28,0,248.11,0h0Z" style="fill: #214827; stroke-width: 0px;"/>
          </g>
          <path d="M255.6,214.26s94.6,53.56,100.66,57.37c6.05,3.81,14.74-5.56,16.43-10.44s1.01-15.85-6.99-17.9c-8-2.06-117.59-48.22-117.59-48.22l7.5,19.19Z" style="fill: #fffdf0; stroke: #214827; stroke-linecap: round; stroke-linejoin: round; stroke-width: 2.5px;"/>
          <path d="M235.3,214.26s-94.6,53.56-100.66,57.37c-6.05,3.81-14.74-5.56-16.43-10.44s-1.01-15.85,6.99-17.9c8-2.06,117.59-48.22,117.59-48.22l-7.5,19.19Z" style="fill: #fffdf0; stroke: #214827; stroke-linecap: round; stroke-linejoin: round; stroke-width: 2.5px;"/>
          <path d="M327.58,170.66l158.79-92.17s8.54,31.06-39.73,61.27c-48.27,30.22-71.23,43.72-71.23,43.72l-7.12,3.9c-1.74.47-4.2.12-5.83-1.19-4.65-3.73-12.33-12.92-17.99-9.34l-16.44,11.86-.45-18.04Z" style="fill: #fffdf0; stroke: #214827; stroke-linecap: round; stroke-linejoin: round; stroke-width: 2.5px;"/>
          <path d="M75.2,129.75c-.81,1.28-2.97,1.42-2.97,1.42L10.74,93.73s-1.16-.6-2.16.94-.05,2.54-.05,2.54l58.82,41.25s1.03,1.92.11,3.37-2.92,1.47-2.92,1.47c0,0-36.57-23.18-51.31-32.53-14.75-9.35-11.71-1.43-11.71-1.43,0,0,47.73,36.88,60.68,46.12s20.67,12.07,26.32,11.06,17.64-3.45,23.91-2.57c6.27.87,58.23,37.56,58.23,37.56l6.04-7.46,5.13-7.5s-55.35-31.34-58.81-36.64-6.38-17.18-7.87-22.72c-1.49-5.54-7.34-11.32-21.23-19.09-13.89-7.77-67.6-35.21-67.6-35.21,0,0-8.46.63,6.28,9.98,14.75,9.35,51.31,32.53,51.31,32.53,0,0,.84,1.81-.08,3.27s-3.1,1.34-3.1,1.34l-62.4-35.6s-1.31-.43-2.28,1.13.07,2.36.07,2.36l60.1,39.64s-.19.93-1,2.2" style="fill: #fffdf0; stroke: #214827; stroke-linecap: round; stroke-linejoin: round; stroke-width: 2.5px;"/>
          <g>
            <g>
              <path d="M245.26,348.47c132.57.68,61.63-93.88,51.34-121.99-.13-.34-.24-.66-.35-.99-1.18-3.58-2.25-7.2-3.2-10.79l3.55,11.78c39.49-1.57,85.16-10.61,71.19-45.53-52.43-131.08-122.36-124.92-122.36-124.92,0,0-70.28-6.16-122.71,124.92-13.96,34.92,31.7,43.96,71.19,45.53l3.56-11.79c-.95,3.59-2.02,7.21-3.21,10.8-.11.33-.22.65-.35.99-10.29,28.11-81.23,122.67,51.35,121.99" style="fill: #fffdf0; stroke: #214827; stroke-linecap: round; stroke-linejoin: round; stroke-width: 4px;"/>
              <path d="M245.27,56.35s70.1-6.49,122.53,124.59c13.97,34.92-31.7,43.96-71.19,45.53" style="fill: #fffdf0; stroke: #214827; stroke-miterlimit: 10; stroke-width: 4px;"/>
              <path d="M193.92,226.48c-39.49-1.58-85.15-10.61-71.19-45.53,52.43-131.08,122.54-124.59,122.54-124.59" style="fill: #fffdf0; stroke: #214827; stroke-miterlimit: 10; stroke-width: 4px;"/>
            </g>
            <g>
              <path d="M245.27,348.47c132.57.68,61.63-93.88,51.34-121.99-.13-.34-.24-.67-.35-.99-8.88-26.8-10.93-55.63-10.93-55.63" style="fill: none; stroke: #214827; stroke-miterlimit: 10; stroke-width: 4px;"/>
              <path d="M245.27,348.47c-132.58.68-61.64-93.88-51.35-121.99.13-.34.24-.67.35-.99,8.56-25.82,10.77-53.54,10.92-55.52,0-.08,0-.12,0-.12" style="fill: none; stroke: #214827; stroke-miterlimit: 10; stroke-width: 4px;"/>
            </g>
            <path d="M245.27,58.27s38.06-3,77.73,46.08,45.66,87.27,45.66,87.27c0,0,3.72,13.59-19.86,24.6s-16.48-1.98-16.48-1.98c0,0-.47-8.67-4.73-9.27s-18.04-1.83-19.77-3.46-4.99-9.94-6.35-17.02-1.54-14.64-1.54-14.64h-14.6l-8.83,4.18h-10.12l-7.87-7.49-5.99-7.49-7.25-3.75-8.11,2.62-7.49,11.93-6.74,5.96h-7.87l-9.53-3.42-7.68-2.55-6.98,1.93-2.88,9.06v12.55l-3.88,6.91-8.18,3.14-5.59,1.53h-6.23l-3.75,2.75-2.25,3.78s3.46,9.42-9.37,6.48-29.43-11.18-28.39-28.12,35.91-77.9,64.69-103.61c15.06-13.45,33.3-27.04,60.23-27.98Z" style="fill: #d9a566; mix-blend-mode: multiply; stroke-width: 0px;"/>
            <path d="M167.82,211.28c5.99,4.51,23.04,6.71,23.04,6.71" style="fill: none; stroke: #214827; stroke-linecap: round; stroke-linejoin: round; stroke-width: 2.5px;"/>
            <path d="M177.05,207.73c4.03,2.57,15.37,3.78,15.37,3.78" style="fill: none; stroke: #214827; stroke-linecap: round; stroke-linejoin: round; stroke-width: 2.5px;"/>
            <path d="M185.05,203.45c2.29,2.12,8.6,3.06,8.6,3.06" style="fill: none; stroke: #214827; stroke-linecap: round; stroke-linejoin: round; stroke-width: 2.5px;"/>
            <path d="M189.35,197.8c1.68,1.76,6.17,2.5,6.17,2.5" style="fill: none; stroke: #214827; stroke-linecap: round; stroke-linejoin: round; stroke-width: 2.5px;"/>
            <path d="M190.89,189.86c1.95,2.54,6.95,3.54,6.95,3.54" style="fill: none; stroke: #214827; stroke-linecap: round; stroke-linejoin: round; stroke-width: 2.5px;"/>
            <path d="M192.96,182.55c1.9,2.86,6.43,3.88,6.43,3.88" style="fill: none; stroke: #214827; stroke-linecap: round; stroke-linejoin: round; stroke-width: 2.5px;"/>
            <path d="M195.5,175.82c1.54,2.53,4.68,3.31,4.68,3.31" style="fill: none; stroke: #214827; stroke-linecap: round; stroke-linejoin: round; stroke-width: 2.5px;"/>
            <path d="M322.99,211.28c-5.99,4.51-23.04,6.71-23.04,6.71" style="fill: none; stroke: #214827; stroke-linecap: round; stroke-linejoin: round; stroke-width: 2.5px;"/>
            <path d="M313.77,207.73c-4.03,2.57-15.37,3.78-15.37,3.78" style="fill: none; stroke: #214827; stroke-linecap: round; stroke-linejoin: round; stroke-width: 2.5px;"/>
            <path d="M305.77,203.45c-2.29,2.12-8.6,3.06-8.6,3.06" style="fill: none; stroke: #214827; stroke-linecap: round; stroke-linejoin: round; stroke-width: 2.5px;"/>
            <path d="M301.46,197.8c-1.68,1.76-6.17,2.5-6.17,2.5" style="fill: none; stroke: #214827; stroke-linecap: round; stroke-linejoin: round; stroke-width: 2.5px;"/>
            <path d="M299.92,189.86c-1.95,2.54-6.95,3.54-6.95,3.54" style="fill: none; stroke: #214827; stroke-linecap: round; stroke-linejoin: round; stroke-width: 2.5px;"/>
            <path d="M297.85,182.55c-1.9,2.86-6.43,3.88-6.43,3.88" style="fill: none; stroke: #214827; stroke-linecap: round; stroke-linejoin: round; stroke-width: 2.5px;"/>
            <path d="M295.31,175.82c-1.54,2.53-4.68,3.31-4.68,3.31" style="fill: none; stroke: #214827; stroke-linecap: round; stroke-linejoin: round; stroke-width: 2.5px;"/>
            <path d="M311.47,320.01s14.82-20.21-14.31-71.45c-7.47-13.14-8.45-23.34-8.45-23.34" style="fill: none; stroke: #214827; stroke-linecap: round; stroke-linejoin: round; stroke-width: 2.5px;"/>
            <path d="M303.67,323.03s14.82-20.21-14.31-71.45" style="fill: none; stroke: #214827; stroke-linecap: round; stroke-linejoin: round; stroke-width: 2.5px;"/>
            <path d="M211.86,183.02s-1.71,22.34-3.99,32.08" style="fill: none; stroke: #214827; stroke-linecap: round; stroke-linejoin: round; stroke-width: 2.5px;"/>
            <path d="M213.85,207.73s-1.71,11.84-3.99,17" style="fill: none; stroke: #214827; stroke-linecap: round; stroke-linejoin: round; stroke-width: 2.5px;"/>
            <path d="M177.05,288.98s-7.59,31.31,16.6,42.98" style="fill: none; stroke: #214827; stroke-linecap: round; stroke-linejoin: round; stroke-width: 2.5px;"/>
            <path d="M361.56,193.45s1.14-8.73-2.93-14.04" style="fill: none; stroke: #214827; stroke-linecap: round; stroke-linejoin: round; stroke-width: 2.5px;"/>
            <path d="M356.46,194.89s1.14-8.73-2.93-14.04" style="fill: none; stroke: #214827; stroke-linecap: round; stroke-linejoin: round; stroke-width: 2.5px;"/>
          </g>
          <path d="M193.4,88.73c-4.55,3.17-7.77,5.94-7.77,5.94" style="fill: none; stroke: #214827; stroke-linecap: round; stroke-miterlimit: 10; stroke-width: 2px;"/>
          <path d="M158.23,211.59c4.16-11.81,17.18-2.23,26.69-13.38,4.72-5.54.58-23.32,8.54-28.29,6.43-4.02,20.31,7.02,29.21,4.67,7.34-1.94,13.46-18.85,22.67-18.93s15.58,16.74,22.93,18.62c8.93,2.28,22.78-8.76,29.21-4.71,7.92,5,3.65,22.76,8.32,28.38,9.34,11.23,22.5,1.87,26.52,13.74" style="fill: none; stroke: #214827; stroke-linecap: round; stroke-miterlimit: 10; stroke-width: 4px;"/>
          <path d="M193.4,83.84c-4.55,3.17-7.77,5.94-7.77,5.94" style="fill: none; stroke: #214827; stroke-linecap: round; stroke-miterlimit: 10; stroke-width: 2px;"/>
        </g>
        <g>
          <path d="M367.21,104.59s16.8-13.82,19.56-17.22" style="fill: none; stroke: #fffdf0; stroke-linecap: round; stroke-linejoin: round; stroke-width: 3px;"/>
          <path d="M384.68,88.03s-7.66,3.85-13,3.23c-4.89-.58-12-6.88-9.47-9.92,2.53-3.04,12.69-4.46,16.81-1.1s9.32,6.51,5.66,7.8Z" style="fill: #fffdf0; stroke: #214827; stroke-miterlimit: 10;"/>
          <path d="M362.82,82.11s7.01,3.05,12.07,4.22c4.13.95,12.24.26,12.24.26" style="fill: none; stroke: #214827; stroke-linecap: round; stroke-miterlimit: 10;"/>
          <path d="M386.71,87.03s-8.66-14.68-8.9-21.03,5.35-17.22,7.65-16.77,6.07,7.38,5.16,17.72c-.92,10.34-2.58,19.41-3.9,20.08Z" style="fill: #fffdf0; stroke: #214827; stroke-miterlimit: 10;"/>
          <path d="M385.45,49.24s-1.96,21.91,1.33,36.47" style="fill: none; stroke: #214827; stroke-linecap: round; stroke-miterlimit: 10;"/>
          <path d="M414.9,52.34s1.94,13.62-11.4,24.81c-13.34,11.19-16.73,10.21-16.73,10.21,0,0,3.03-18.78,8.49-25.57,5.46-6.79,15.64-12.61,19.64-9.46Z" style="fill: #fffdf0; stroke: #214827; stroke-linecap: round; stroke-linejoin: round;"/>
          <path d="M414.9,52.34s-5.24,4.32-14.01,14.18c-6.53,7.34-14.11,20.84-14.11,20.84" style="fill: none; stroke: #214827; stroke-linecap: round; stroke-miterlimit: 10;"/>
          <path d="M402.74,106.24c1.58-3.63-1.7-13.35-6.55-15.52s-10-5.41-9.51-1.56c0,0-.01,8.57,2.95,13.07,2.71,4.11,11.53,7.64,13.11,4.02" style="fill: #fffdf0; stroke: #214827; stroke-miterlimit: 10;"/>
          <path d="M401.86,107.42s-5.87-4.9-9.19-8.9c-2.7-3.26-5.73-10.82-5.73-10.82" style="fill: none; stroke: #214827; stroke-linecap: round; stroke-miterlimit: 10;"/>
          <path d="M387.44,89.01s16.55,4.07,22.7,2.47c6.15-1.6,14.95-10.08,13.85-12.15s-8.82-3.69-18.45.16c-9.63,3.85-17.84,8.06-18.1,9.52Z" style="fill: #fffdf0; stroke: #214827; stroke-miterlimit: 10;"/>
          <path d="M423.42,79.33s-20.42,8.19-35.31,9.23" style="fill: none; stroke: #214827; stroke-linecap: round; stroke-miterlimit: 10;"/>
          <ellipse cx="386.18" cy="87.03" rx=".76" ry=".17" transform="translate(29.08 257.88) rotate(-38.27)" style="fill: none; stroke: #214827; stroke-miterlimit: 10;"/>
        </g>
        <g>
          <path d="M111.49,313.6s-19.39-9.86-22.82-12.59" style="fill: none; stroke: #fffdf0; stroke-linecap: round; stroke-linejoin: round; stroke-width: 3px;"/>
          <path d="M90.86,301.21s8.31,2.11,13.39.34c4.65-1.62,10.23-9.31,7.1-11.73-3.13-2.42-13.36-1.62-16.65,2.55s-7.69,8.37-3.84,8.83Z" style="fill: #fffdf0; stroke: #214827; stroke-miterlimit: 10;"/>
          <path d="M110.93,290.71s-6.18,4.49-10.87,6.73c-3.82,1.82-11.9,2.9-11.9,2.9" style="fill: none; stroke: #214827; stroke-linecap: round; stroke-miterlimit: 10;"/>
          <path d="M88.67,300.67s5.28-16.2,4.15-22.45-8.94-15.66-11.09-14.72-4.33,8.52-1.21,18.41c3.13,9.89,6.72,18.39,8.15,18.76Z" style="fill: #fffdf0; stroke: #214827; stroke-miterlimit: 10;"/>
          <path d="M81.73,263.5s6.65,20.97,6.58,35.9" style="fill: none; stroke: #214827; stroke-linecap: round; stroke-miterlimit: 10;"/>
          <path d="M53.65,272.9s1.05,13.72,16.49,21.76c15.44,8.05,18.54,6.35,18.54,6.35,0,0-7.02-17.68-13.81-23.13s-17.99-8.93-21.22-4.99Z" style="fill: #fffdf0; stroke: #214827; stroke-linecap: round; stroke-linejoin: round;"/>
          <path d="M53.65,272.9s6.05,3.09,16.75,10.82c7.96,5.75,18.28,17.3,18.28,17.3" style="fill: none; stroke: #214827; stroke-linecap: round; stroke-miterlimit: 10;"/>
          <path d="M77.17,322.89c-2.33-3.2-1.22-13.4,3.04-16.57,4.26-3.17,8.6-7.44,8.94-3.58,0,0,1.86,8.37-.05,13.39-1.75,4.6-9.61,9.95-11.93,6.76" style="fill: #fffdf0; stroke: #214827; stroke-miterlimit: 10;"/>
          <path d="M78.28,323.86s4.67-6.05,7.05-10.67c1.93-3.77,3.25-11.81,3.25-11.81" style="fill: none; stroke: #214827; stroke-linecap: round; stroke-miterlimit: 10;"/>
          <path d="M88.38,302.76s-15.28,7.55-21.63,7.32c-6.35-.23-16.78-6.61-16.15-8.87s7.81-5.51,18.05-3.83c10.24,1.68,19.16,4.02,19.73,5.38Z" style="fill: #fffdf0; stroke: #214827; stroke-miterlimit: 10;"/>
          <path d="M51.16,301.08s21.71,3.58,36.47,1.38" style="fill: none; stroke: #214827; stroke-linecap: round; stroke-miterlimit: 10;"/>
          <ellipse cx="89.19" cy="300.56" rx=".17" ry=".76" transform="translate(-220.24 250.09) rotate(-64.21)" style="fill: none; stroke: #214827; stroke-miterlimit: 10;"/>
        </g>
        <path d="M306.08,169.85s6.35-2.37,7.68-7.92" style="fill: none; stroke: #214827; stroke-linecap: round; stroke-linejoin: round; stroke-width: 2.5px;"/>
        <path d="M336.47,208.94s6.35-2.37,7.68-7.92" style="fill: none; stroke: #214827; stroke-linecap: round; stroke-linejoin: round; stroke-width: 2.5px;"/>
        <path d="M184.1,170.85s-6.35-2.37-7.68-7.92" style="fill: none; stroke: #214827; stroke-linecap: round; stroke-linejoin: round; stroke-width: 2.5px;"/>
        <path d="M153.71,209.93s-6.35-2.37-7.68-7.92" style="fill: none; stroke: #214827; stroke-linecap: round; stroke-linejoin: round; stroke-width: 2.5px;"/>
        <path d="M281.53,76.72s21.16,12.98,33.71,29.94" style="fill: none; stroke: #214827; stroke-linecap: round; stroke-linejoin: round; stroke-width: 2.5px;"/>
        <path d="M257.43,172.63s-2.08,17.11-.81,38.24c1.5,24.91,8.37,32.83,13.39,47.24,12.1,34.72,0,58.52,0,58.52" style="fill: none; stroke: #214827; stroke-linecap: round; stroke-linejoin: round; stroke-width: 2.5px;"/>
        <path d="M264.43,316.63s6.89-20.49,3.45-40.44-11.67-33.02-11.67-33.02" style="fill: none; stroke: #214827; stroke-linecap: round; stroke-linejoin: round; stroke-width: 2.5px;"/>
        <path d="M230.61,197.8s1.34,9.64-4.24,45.84c-5.59,36.26,1.3,62.33,1.3,62.33" style="fill: none; stroke: #214827; stroke-linecap: round; stroke-linejoin: round; stroke-width: 2.5px;"/>
        <path d="M224.13,316.94s-7.15-13-8.67-33.78c-1.12-15.32,2.1-32.18,2.1-32.18" style="fill: none; stroke: #214827; stroke-linecap: round; stroke-linejoin: round; stroke-width: 2.5px;"/>
        <path d="M148.29,142.23s10.56-22.47,26.02-36.82" style="fill: none; stroke: #214827; stroke-linecap: round; stroke-linejoin: round; stroke-width: 2.5px;"/>
      </g>
    </g>
  </g>
</svg>