<?xml version="1.0" encoding="UTF-8"?>
<svg id="Layer_1" data-name="Layer 1" xmlns="http://www.w3.org/2000/svg" viewBox="0 0 1102.71 331.9">
  <defs>
    <style>
      .cls-1 {
        fill: #603913;
        font-family: Merriweather-Bold, Merriweather;
        font-size: 140px;
        font-weight: 700;
        letter-spacing: .01em;
      }

      .cls-2 {
        fill: #f89d77;
      }

      .cls-2, .cls-3, .cls-4, .cls-5, .cls-6, .cls-7, .cls-8, .cls-9, .cls-10 {
        stroke-width: 0px;
      }

      .cls-3 {
        fill: #f6eae2;
      }

      .cls-4 {
        fill: #f58358;
      }

      .cls-5 {
        fill: #726658;
      }

      .cls-6 {
        fill: #dc764f;
      }

      .cls-7 {
        fill: #d7bfae;
      }

      .cls-8 {
        fill: #8c7d6d;
      }

      .cls-9 {
        fill: #fff9f3;
      }

      .cls-10 {
        fill: #fccbab;
      }
    </style>
  </defs>
  <g>
    <path class="cls-10" d="M1024.54,165.46c.13,2.31.27,5.57.29,9.47.04,7.97-.45,14.15-1.14,21.51-1.58,16.76-2.37,25.14-3.72,30.73-2.18,9.06-3.51,14.59-8,21.25-4.39,6.5-8.34,12.35-16.01,15.62-2.88,1.23-5.36,1.7-7.15,4.1-2.51,3.38-2.19,8.59.57,12.29,3.49,4.68,9.66,5.28,10.86,5.38,8.98.69,15.85-6.19,18.87-9.22,6.2-6.22,9.17-13.36,11.43-23.3,3.64-15.94,3.1-28.55,2.86-35.59-.4-11.98-.63-29.18.29-50.7-3.05-.51-6.1-1.02-9.15-1.54Z"/>
    <path class="cls-10" d="M942.49,125.26c-1.48,5.79-3.35,13.95-4.86,23.81-1.75,11.43-2.19,19.67-2.86,33.03-.77,15.34-.69,25.58-.57,42,.1,13.4.39,20.28,2,29.19,3.17,17.51,7.79,22.58,11.72,25.35,1.52,1.07,9.92,6.72,17.44,3.84,3.07-1.18,6.55-3.98,6.86-7.43.34-3.77-3.36-5.65-6.86-10.76-1.03-1.5-2.4-3.8-5.15-14.85-2.75-11.04-4.24-20.22-5.15-26.38-.96-6.51-2.07-13.99-2.86-24.07-.23-2.88-1.01-13.4-.86-29.96.11-11.75.7-27.03,2.57-45.07-3.81.43-7.62.85-11.43,1.28Z"/>
    <path class="cls-10" d="M870.74,170.58c-.23,4.34-.49,10.4-.57,17.67-.08,7.56-.13,12.15.29,18.18.66,9.56,1.05,15.08,3.43,22.28.81,2.46,3.64,10.5,10.29,19.46,2.37,3.19,7.38,9.84,16.01,16.39,7.93,6.02,12.78,7.3,15.44,13.32.57,1.29,3.01,6.83,0,10.5-3.31,4.03-10.98,3.11-13.44,2.82-2.63-.32-8.2-1.39-15.15-6.91-8.26-6.56-11.95-14.21-14.01-18.69-4.68-10.23-10.25-22.37-14.01-40.97-1.05-5.2-4.03-21.14-3.43-42,.12-4.2.36-7.72.57-10.24,4.86-.6,9.72-1.2,14.58-1.79Z"/>
    <g>
      <path class="cls-6" d="M1091.67,147.47c-1.95-5.23-5.37-12.3-11.55-19.48-3.74-4.34-9.96-11.4-21.07-16.44-10.02-4.54-19.03-5.18-23.79-5.48-5.33-.33-10.69-.67-16.65.91-7.84,2.08-11.08,5.97-22.43,16.74-19.68,18.66-27.09,23.22-25.49,29.83.55,2.27,2.1,3.74,5.1,6.7,6.27,6.2,13.64,8.58,18.35,10.04,4.01,1.25,13.99,3.92,27.86,2.74,7.65-.65,14.44-2.3,29.9-8.22,10.28-3.93,23.95-9.58,39.76-17.35Z"/>
      <path class="cls-4" d="M1030.43,171.78c4.76-1.64,7.94-5.15,11.33-8.08,5.28-4.56,11.72-7.95,17.01-12.52,5.84-5.04,11.6-11.19,12.05-18.78.4-6.63-3.66-12.76-7.17-18.48-1.44-.82-2.97-1.62-4.62-2.36-10.02-4.54-19.03-5.18-23.79-5.48-5.33-.33-10.69-.67-16.65.91-7.84,2.08-11.08,5.97-22.43,16.74-19.68,18.66-27.09,23.22-25.49,29.83.55,2.27,2.1,3.74,5.1,6.7,6.27,6.2,13.64,8.58,18.35,10.04,4.01,1.25,13.99,3.92,27.86,2.74,2.77-.24,5.43-.61,8.43-1.26Z"/>
      <path class="cls-2" d="M974.36,153.48c3.11.11,6.22.04,9.33.03,10.68-.05,21.46-.21,31.94-2.27,12.06-2.37,30.94-9.19,38.22-21.27.72-1.19.95-2.36,1.75-3.16,2.95-6.93,1.63-13.12-3.88-18-6.97-2.1-12.92-2.52-16.48-2.74-5.33-.33-10.69-.67-16.65.91-7.84,2.08-11.08,5.97-22.43,16.74-19.29,18.3-26.77,23.04-25.55,29.45,1.24.12,2.48.26,3.75.3Z"/>
    </g>
    <g>
      <path class="cls-6" d="M982.04,119.36c-3.27,4.67-8.76,6.4-16.15,8.63-14.49,4.37-26.93,3.62-30.87,3.3-7.45-.61-18.84-1.55-30.02-8.37-10.91-6.65-20.14-18.01-17.56-21.31.83-1.07,2.53-.77,4.82-1.01,7.51-.79,12.56-6.34,20.68-16.49,6.31-7.89,12.86-16.55,19.26-24.86,5.87-7.63,9.57-12.32,16.71-15.22,6.47-2.64,11.68-2.15,12.75-2.03,1.18.13,8.66,1.04,13.88,6.6,2.76,2.94,3.75,5.97,4.25,7.61,4.38,14.53,1.58,26.46,3.12,44.66.86,10.18,2.37,13.93-.85,18.52Z"/>
      <path class="cls-4" d="M939.17,131.53c2.5-1.21,5.04-2.33,7.54-3.71,5.74-3.17,9.47-8.43,13.27-13.28,3.76-4.8,7.46-9.66,10.5-14.86,3.07-5.26,3.93-11.13,5.63-16.81.15-.5.37-.95.61-1.38,1.62-10.54.87-21.28-.32-31.88-.27-.34-.56-.68-.88-1.01-5.22-5.56-12.7-6.47-13.88-6.6-1.07-.12-6.27-.61-12.75,2.03-7.14,2.91-10.84,7.59-16.71,15.22-6.4,8.32-12.95,16.98-19.26,24.87-8.12,10.15-13.16,15.7-20.68,16.49-2.29.24-3.99-.05-4.82,1.01-2.58,3.31,6.66,14.66,17.56,21.31,11.18,6.82,22.57,7.76,30.02,8.37.93.08,2.35.18,4.15.23Z"/>
      <path class="cls-2" d="M941.46,89.72c8.18-6.07,15.12-14.44,18.2-23.62,1.83-5.46,2.68-12.53,1.22-18.16-.57-2.18-1.77-4.15-3.14-6.06-2.33,0-6.12.35-10.5,2.14-7.14,2.91-10.84,7.59-16.71,15.22-6.4,8.32-12.95,16.98-19.26,24.87-8.12,10.15-13.16,15.7-20.68,16.49-.51.05-.98.08-1.42.1,17.34,4.87,38.74-.91,52.3-10.98Z"/>
    </g>
    <g>
      <path class="cls-4" d="M918.74,170.47c0-1.83-.2-8-6.8-18.01-6.01-9.13-12.97-14.83-16.15-17.25-6.09-4.64-10.89-8.3-18.69-10.15-9.03-2.14-16.64-.56-20.39.25-7.72,1.68-12.85,4.69-18.69,8.12-7.08,4.15-6.07,4.75-17.56,12.69-5.75,3.97-3.09,1.81-19.26,12.18-6.37,4.08-7.87,5.12-11.05,6.09-7.11,2.17-12.3.86-13.31,3.04-.86,1.84,2.01,4.53,4.82,7.1,3.43,3.15,7.87,7.14,15.86,10.15,8.65,3.25,15.94,3.28,22.94,3.3,11.5.04,19.73.06,27.48-4.57,5.1-3.05,6.37-5.96,11.33-6.6,4.91-.64,7.11,1.77,13.88,3.81,6.28,1.89,11.74,1.77,22.66,1.52,12.13-.27,18.25-.49,21.24-4.31,1.69-2.16,1.69-4.49,1.7-7.36Z"/>
      <path class="cls-6" d="M911.95,152.51c-6.01-9.13-12.97-14.83-16.15-17.25-1.59-1.21-3.08-2.35-4.57-3.41.54.96,1.07,1.92,1.6,2.88,4.06,7.45,8.52,14.69,7.71,23.26-.84,8.94-9.64,18.72-20.02,24.08,4.02.37,8.63.27,15.28.12,12.13-.27,18.25-.49,21.24-4.31,1.69-2.16,1.69-4.49,1.7-7.36,0-1.83-.2-8-6.8-18.01Z"/>
      <path class="cls-2" d="M806.59,162.91c6.41,1.53,13.87,1.08,20.44.77,8.96-.43,18.22-2.39,26.41-5.65,7.69-3.07,15.89-7.72,17.55-15.66,1.18-5.66.44-13.56-3.85-18.39-4.48.08-8.11.83-10.35,1.32-7.72,1.68-12.85,4.69-18.69,8.12-7.08,4.15-6.07,4.75-17.56,12.69-5.75,3.97-3.09,1.81-19.26,12.18-.95.61-1.78,1.14-2.53,1.62,2.54,1.2,5.09,2.35,7.85,3.01Z"/>
    </g>
  </g>
  <g>
    <g>
      <path class="cls-7" d="M84.91,105.52c-.41,1.41,18.02,5.92,48.07,14.42,42.56,12.04,36.92,11.86,51.73,15.3,18.57,4.31,78.73,18.27,96.15-1.31,1.14-1.28,5.27-5.38,4.7-10.49-.78-7.06-9.89-11.54-14.11-13.55-13.42-6.4-27.12-6.17-40.23-5.68-29.75,1.12-36.06,2.82-59.05,3.93-14.29.69-31.66,1.53-54.34,0-20.1-1.36-32.59-3.78-32.92-2.62Z"/>
      <path class="cls-3" d="M138.47,88.1c-1.7,8.73-3.57,20.35-4.7,34.09-.84,10.18-1.97,24.64-.52,42.84,1.84,23.24,6.92,40.36,10.97,53.76,0,0,7.71,25.5,28.22,59.44,2.14,3.54,5.99,9.7,14.11,13.99,7.43,3.93,14.73,4.33,23.51,4.81,8.46.46,19.72,1.08,32.4-3.5,7.43-2.68,17.37-6.27,20.9-14.42,3.18-7.35-.55-14.48-4.18-21.42-5.35-10.22-10.61-12.9-19.33-23.17-5.58-6.56-9.64-13.7-17.77-27.97-7.38-12.96-12.59-22.12-17.24-35.4-2.91-8.31-5.39-15.38-6.27-25.35-.26-2.95-.42-6.5.52-25.79.39-7.98.77-14.61,1.05-19.23-20.55-4.23-41.11-8.45-61.66-12.68Z"/>
      <path class="cls-9" d="M190.04,284.69c10.8-2.13,12.95-9.87,11.97-17.93-2.09-17.26-6.5-33.82-11.77-50.57-5.76-18.31-8.86-37.19-11-56.02-1.95-17.15.54-34.13,1.14-51.23-13.97-2.87-27.95-5.75-41.92-8.62-1.7,8.73-3.57,20.35-4.7,34.09-.84,10.18-1.97,24.64-.52,42.84,1.84,23.24,6.92,40.36,10.97,53.76,0,0,6.21,20.5,22.26,49.2,7.08,3.09,15.56,6.06,23.56,4.48Z"/>
      <path class="cls-5" d="M0,38.25c.81,5.48,2.66,13.44,7.32,22.29,9.93,18.91,26.03,29.31,32.92,33.66,6.79,4.28,19.48,11.25,37.1,15.3,14.45,3.32,25.84,3.22,43.37,3.06,11.2-.1,19.67-.8,36.58-2.19,16.53-1.36,18.21-1.95,33.44-3.06,20.52-1.5,30.46-1.38,33.96-1.31,17.23.32,24.84,2.05,29.78,3.5,13.92,4.07,17.88,9.21,18.81,10.49.7.96,5.46,7.55,2.61,13.11-1.42,2.77-4.68,6.63-4.31,7.07.66.77,10.31-4.19,13.19-9.69,1.67-3.2,1.83-6.28.22-11.07-5.7-16.89-3.31-10.15-7.53-20.4-3.71-9.02-7.2-17.49-13.59-27.54-12.61-19.84-28.22-32.77-35.01-38.03-10.08-7.79-25.72-19.65-50.69-27.1C151.85-1.51,129.42-.21,116.52.66c-6.18.41-24.67,1.95-46.51,8.74-8.81,2.74-22.54,8.57-49.64,20.11-8.52,3.63-15.56,6.66-20.38,8.74Z"/>
    </g>
    <path class="cls-8" d="M27.14,53.74c9.57,6.83,19.49,13.79,30.57,18.84,23.61,10.76,51.79,14.42,78.37,15.08,24.48.6,51.6-.58,74.35-8.93,11.85-4.35,23.48-11.45,22.8-23.4-.46-7.98-3.87-15.42-6.55-23.03-10.11-7.77-25.42-18.87-49.21-25.96C151.14-1.51,128.7-.21,115.81.66c-6.18.41-24.67,1.95-46.51,8.74-8.81,2.74-22.54,8.57-49.64,20.11-5.24,2.23-9.92,4.24-13.87,5.94,5.73,7.03,13.9,12.98,21.35,18.3Z"/>
  </g>
  <text class="cls-1" transform="translate(173.22 293.69)"><tspan x="0" y="0">Mushrooms</tspan></text>
</svg>