<?xml version="1.0" encoding="UTF-8"?>
<svg id="Layer_1" data-name="Layer 1" xmlns="http://www.w3.org/2000/svg" viewBox="0 0 965.48 248.81">
  <defs>
    <style>
      .cls-1 {
        fill: #603913;
        font-family: Merriweather-Bold, Merriweather;
        font-size: 140px;
        font-weight: 700;
        letter-spacing: .01em;
      }

      .cls-2 {
        fill: #be1e2d;
        stroke: #92111d;
        stroke-miterlimit: 10;
      }

      .cls-3 {
        fill: #726658;
      }

      .cls-3, .cls-4, .cls-5, .cls-6, .cls-7, .cls-8 {
        stroke-width: 0px;
      }

      .cls-4 {
        fill: #c49a6c;
      }

      .cls-5 {
        fill: #c2b59b;
      }

      .cls-6 {
        fill: #9c937e;
      }

      .cls-7 {
        fill: #847d6b;
      }

      .cls-8 {
        fill: #006838;
      }
    </style>
  </defs>
  <g>
    <path class="cls-4" d="M959.27,5.91c-.97-1.18-3.56-4.33-6.92-4.59-3.89-.3-6.52,3.43-10.38,7.51-5.03,5.33-3.32,1.92-16.27,12.94-10.19,8.68-15.29,13.01-18.69,17.12-4.55,5.49-6.86,9.62-12.11,11.27-4.55,1.43-7.45-.21-8.31,1.67-1.95,4.28,10.73,17.95,10.73,17.95h0s7.42-4.89,11.77-7.93c7.11-4.97,7.29-5.89,16.96-13.36,8.75-6.76,13.13-10.14,16.61-12.11,7.64-4.31,11.48-4.8,15.92-10.44,1.84-2.33,4.78-6.18,4.5-11.27-.25-4.43-2.81-7.56-3.81-8.77Z"/>
    <path class="cls-3" d="M960.24.23c-.48-.13-2.59-.69-3.43.57-1.17,1.76.98,5.74,1.65,6.99.4.74,3.4,6.29,5.44,5.42,1.48-.63,1.91-4.42,1.3-7.13-.65-2.88-2.64-5.23-4.96-5.85Z"/>
    <path class="cls-3" d="M851.97,87.06c1.1-2.1,2.78-5.08,5.08-8.41,4.36-6.32,8.21-9.91,15.72-16.82,8.79-8.08,10.36-8.37,11.7-8.27,6.05.44,10.15,8.78,11.23,10.98,1.52,3.09,3.08,6.27,2.36,9.69-.53,2.53-2.07,4.07-9.93,9.12-11.71,7.53-12.65,6.93-17.14,10.98-3.08,2.77-3.59,3.92-5.44,4.28-4.93.97-9.95-5.51-13.59-11.55Z"/>
    <path class="cls-5" d="M880.59,109.12c-10.99-15.4-23.94-23.13-31.18-26.86-5.2-2.68-15.6-7.48-39.34-11.19-22.95-3.59-43.28-6.76-69.41-.9-24.52,5.51-37.8,15.31-41.2,17.91-7.87,6.02-18.94,14.74-24.5,31.34-1.31,3.92-6.93,20.7-.37,32.23,2.84,4.99,6.87,7.07,9.65,8.51,36.75,19.03,28.36,17.05,39.34,21.04,13.57,4.93,28.36,10.31,48.62,11.19,20.47.89,34.35-3.34,60.13-11.19,30.79-9.38,40.93-17.63,47.88-26.86,9.57-12.71,9.38-22.37,9.28-24.62-.12-2.6-.79-9.21-8.91-20.59Z"/>
    <path class="cls-7" d="M867.23,167.51c1.41-4.24,4.32-14.73.72-25.12-2.84-8.22-8.5-12.68-12.48-15.44-34.09-23.58-86.71-19.68-86.71-19.68-21.76,1.61-38.27,3.05-57.59,15.05-14.8,9.19-35.78,24.55-33.59,32.03.12.41.32.81,1.9,2.35,5.96,5.78,11.84,8.54,18.96,11.81,8.82,4.05,8.35,3.8,11.03,5.06,9.28,4.35,9.51,4.76,12.9,6.19,6.98,2.95,12.42,3.95,19.43,5.25,5.48,1.01,10.13,1.42,19.43,2.25,9.27.82,13.91,1.23,18.97,1.22,6.52-.02,11.65-.67,21.91-1.96,12.01-1.51,20.83-3.2,24.56-3.94,8.8-1.74,13.2-2.62,18.18-4.25,9.39-3.09,16.93-7.26,22.39-10.81"/>
    <path class="cls-6" d="M674.59,151.65c.84,3.69,2.21,8.7,4.45,14.32,1.6,4.02,6.38,15.17,15.96,25.96,8.73,9.84,17.14,14.52,23.38,17.91,15.92,8.65,29.56,10.42,39.71,11.64,17.8,2.13,31.33.08,43.05-1.79,15.01-2.39,25.63-4.08,38.97-11.19,14.98-7.98,24.34-17.97,27.84-21.93,4.75-5.39,11.25-12.88,15.96-25.07,4.38-11.33,6.12-23.86,4.81-24.44-1.37-.61-4.87,12.73-8.52,17.28-23.36,29.1-92.54,37.28-141.78,28.65-15.6-2.73-38.19-12.86-63.84-31.34"/>
  </g>
  <g>
    <g>
      <path class="cls-2" d="M34.48,94.95c3.96-1.52,17.56-6.74,30.35-1.42,9.53,3.97,11.23,10.72,21.42,12.74,4.45.88,6.57.08,21.07-2.83,16.43-3.3,24.64-4.95,27.49-4.6,14.33,1.75,25.53,16.67,29.99,27.95,11.7,29.54-12.68,59.64-14.28,61.56-23.66,28.35-67.38,34.15-99.97,21.23-7.03-2.79-45.21-17.93-49.63-53.42-3.09-24.86,11.26-52.65,33.56-61.21Z"/>
      <path class="cls-8" d="M73.04,30.55c3.59,2.92,12.37,10.9,15.35,24.06,2.52,11.14-.52,19.76-4.28,30.43-2.71,7.69-4.56,12.68-9.42,15.08-7.53,3.71-17.37-1.24-17.71-.22-.34,1,10.14,2.73,12.5,8.85,3.48,9.01-12.37,23.19-11.78,23.7.62.55,14.37-19.39,23.92-16.98,9.33,2.35,11.1,25.11,13.21,24.77,2.1-.34-3.15-22.24,4.28-26.54,7.8-4.5,25.7,12.61,26.42,11.68.56-.72-9.97-10.78-21.42-21.58-6.33-5.97-8.63-8.1-9.64-12.03-2.08-8.1,3.68-14.66,6.43-20.87,3.82-8.63,4.59-22.83-9.64-47.06-6.07,2.24-12.14,4.48-18.21,6.72Z"/>
    </g>
    <g>
      <path class="cls-2" d="M109.96,134.38c2.91-2.39,12.92-10.59,25.25-9.97,9.19.46,12.54,5.47,21.74,4.15,4.01-.57,5.57-1.84,17-8.42,12.95-7.46,19.42-11.19,21.93-11.73,12.62-2.73,26.33,6.16,33.32,14.05,18.31,20.67,6.28,52.25,5.47,54.29-11.92,29.96-47.23,47.38-78.47,46.32-6.74-.23-43.33-1.47-57.18-29.1-9.7-19.35-5.48-46.15,10.93-59.6Z"/>
      <path class="cls-8" d="M98.39,56.38c3.87,1.34,39.39,19.65,45.66,29.49,5.31,8.34,5.19,16.24,5.05,26.03-.1,7.05-.24,11.65-3.67,15.01-5.31,5.2-15.04,4.04-15.04,4.97,0,.91,9.35-.72,13.08,3.57,5.51,6.33-3.85,22.48-3.21,22.73.68.26,6.62-19.97,15.38-20.78,8.55-.79,16.54,17.23,18.22,16.33,1.68-.89-9-17.2-3.94-22.86,5.31-5.93,25.32,2.81,25.66,1.84.27-.75-11.5-5.88-24.26-11.36-7.06-3.03-9.6-4.09-11.58-7-4.07-6,.22-30.16-3.17-34.99-8.21-11.68-40.7-25.78-59.63-41.38-4.49,3.59,5.92,14.8,1.43,18.38Z"/>
    </g>
  </g>
  <text class="cls-1" transform="translate(193.95 210.59)"><tspan x="0" y="0">Recipes</tspan></text>
</svg>